{"glyphs":{"0":{"ha":913,"x_min":0,"x_max":0,"o":"m 715 175 l 715 714 l 661 768 l 249 768 l 194 714 l 194 175 l 249 121 l 661 121 m 838 125 l 710 0 l 200 0 l 74 125 l 74 764 l 200 889 l 710 889 l 838 764 "},"1":{"ha":400,"x_min":0,"x_max":0,"o":"m 318 0 l 197 0 l 197 719 l 156 678 l 69 764 l 197 889 l 318 889 "},"2":{"ha":763,"x_min":0,"x_max":0,"o":"m 715 504 l 588 379 l 233 379 l 179 324 l 179 121 l 714 121 l 714 0 l 58 0 l 58 374 l 185 500 l 539 500 l 593 554 l 593 714 l 539 768 l 233 768 l 143 678 l 58 764 l 185 889 l 588 889 l 715 764 "},"3":{"ha":778,"x_min":0,"x_max":0,"o":"m 706 126 l 578 0 l 178 0 l 51 126 l 136 213 l 226 122 l 529 122 l 585 178 l 585 324 l 531 378 l 303 378 l 303 499 l 490 499 l 585 593 l 585 711 l 529 768 l 226 768 l 136 678 l 51 764 l 178 889 l 578 889 l 706 763 l 706 542 l 621 458 l 706 375 "},"4":{"ha":788,"x_min":0,"x_max":0,"o":"m 726 381 l 608 381 l 608 1 l 486 1 l 486 381 l 53 381 l 53 888 l 174 888 l 174 503 l 486 503 l 486 889 l 608 889 l 608 503 l 726 503 "},"5":{"ha":761,"x_min":0,"x_max":0,"o":"m 717 125 l 590 0 l 188 0 l 61 125 l 146 211 l 238 121 l 540 121 l 596 176 l 596 324 l 540 379 l 61 379 l 61 888 l 717 888 l 717 767 l 182 767 l 182 500 l 590 500 l 717 374 "},"6":{"ha":836,"x_min":0,"x_max":0,"o":"m 667 176 l 667 324 l 611 379 l 186 379 l 186 175 l 240 121 l 611 121 m 788 125 l 661 0 l 192 0 l 65 125 l 65 764 l 192 889 l 661 889 l 788 764 l 701 678 l 611 768 l 240 768 l 186 714 l 186 500 l 661 500 l 788 375 "},"7":{"ha":710,"x_min":0,"x_max":0,"o":"m 653 768 l 311 0 l 172 0 l 511 768 l 28 768 l 28 889 l 653 889 "},"8":{"ha":803,"x_min":0,"x_max":0,"o":"m 608 175 l 608 324 l 554 379 l 249 379 l 193 324 l 193 175 l 249 121 l 554 121 m 608 554 l 608 714 l 554 768 l 249 768 l 193 714 l 193 554 l 249 500 l 554 500 m 729 125 l 603 0 l 199 0 l 72 125 l 72 374 l 138 439 l 72 504 l 72 764 l 199 889 l 603 889 l 729 764 l 729 504 l 664 439 l 729 374 "},"9":{"ha":865,"x_min":0,"x_max":0,"o":"m 669 510 l 669 713 l 614 768 l 243 768 l 188 714 l 188 564 l 243 510 m 789 125 l 663 0 l 193 0 l 67 125 l 153 211 l 243 121 l 614 121 l 669 176 l 669 389 l 193 389 l 67 514 l 67 764 l 193 889 l 663 889 l 789 764 "}," ":{"ha":389,"x_min":0,"x_max":0,"o":""},"!":{"ha":274,"x_min":0,"x_max":0,"o":"m 199 0 l 78 0 l 78 121 l 199 121 m 199 222 l 78 222 l 78 889 l 199 889 "},"\"":{"ha":528,"x_min":0,"x_max":0,"o":"m 199 708 l 78 708 l 78 1072 l 199 1072 m 446 708 l 325 708 l 325 1072 l 446 1072 "},"#":{"ha":810,"x_min":0,"x_max":0,"o":"m 489 328 l 489 540 l 321 540 l 321 328 m 761 207 l 610 207 l 610 44 l 489 44 l 489 207 l 321 207 l 321 44 l 200 44 l 200 207 l 50 207 l 50 328 l 200 328 l 200 540 l 50 540 l 50 661 l 200 661 l 200 844 l 321 844 l 321 661 l 489 661 l 489 844 l 610 844 l 610 661 l 761 661 l 761 540 l 610 540 l 610 328 l 761 328 "},"$":{"ha":707,"x_min":0,"x_max":0,"o":"m 525 286 l 525 324 l 471 379 l 415 379 l 415 232 l 471 232 m 294 500 l 294 657 l 232 657 l 176 603 l 176 554 l 232 500 m 646 236 l 519 111 l 415 111 l 415 0 l 294 0 l 294 111 l 182 111 l 56 236 l 142 322 l 232 232 l 294 232 l 294 379 l 182 379 l 56 504 l 56 653 l 182 778 l 294 778 l 294 889 l 415 889 l 415 778 l 519 778 l 646 653 l 560 567 l 471 657 l 415 657 l 415 500 l 519 500 l 646 374 "},"%":{"ha":754,"x_min":0,"x_max":0,"o":"m 593 99 l 593 161 l 557 197 l 504 197 l 468 161 l 468 99 l 504 63 l 557 63 m 278 728 l 278 790 l 242 826 l 189 826 l 154 790 l 154 728 l 189 692 l 242 692 m 697 54 l 599 -43 l 463 -43 l 364 54 l 364 206 l 463 303 l 599 303 l 697 206 m 671 858 l 161 -24 l 67 31 l 576 913 m 382 683 l 285 586 l 147 586 l 49 683 l 49 835 l 147 932 l 285 932 l 382 835 "},"&":{"ha":758,"x_min":0,"x_max":0,"o":"m 319 233 l 319 394 l 243 394 l 172 325 l 172 288 l 228 233 m 319 515 l 319 657 l 228 657 l 172 601 l 172 592 l 250 515 m 706 236 l 579 111 l 440 111 l 440 0 l 319 0 l 319 111 l 181 111 l 51 238 l 51 375 l 136 458 l 51 542 l 51 651 l 181 778 l 319 778 l 319 889 l 440 889 l 440 778 l 579 778 l 706 653 l 621 567 l 529 657 l 440 657 l 440 515 l 511 515 l 511 394 l 440 394 l 440 233 l 531 233 l 621 324 "},"'":{"ha":281,"x_min":0,"x_max":0,"o":"m 199 708 l 78 708 l 78 1072 l 199 1072 "},"(":{"ha":408,"x_min":0,"x_max":0,"o":"m 357 -1 l 357 -122 l 201 -122 l 74 3 l 74 886 l 201 1011 l 357 1011 l 357 890 l 250 890 l 196 836 l 196 53 l 250 -1 "},")":{"ha":429,"x_min":0,"x_max":0,"o":"m 357 3 l 231 -122 l 74 -122 l 74 -1 l 182 -1 l 236 53 l 236 836 l 182 890 l 74 890 l 74 1011 l 231 1011 l 357 886 "},"*":{"ha":613,"x_min":0,"x_max":0,"o":"m 543 621 l 406 621 l 475 503 l 369 442 l 301 561 l 232 442 l 128 503 l 196 621 l 58 621 l 58 742 l 196 742 l 128 861 l 232 922 l 301 803 l 369 922 l 475 861 l 406 742 l 543 742 "},"+":{"ha":596,"x_min":0,"x_max":0,"o":"m 539 399 l 357 399 l 357 217 l 236 217 l 236 399 l 54 399 l 54 519 l 236 519 l 236 701 l 357 701 l 357 519 l 539 519 "},",":{"ha":428,"x_min":0,"x_max":0,"o":"m 344 125 l 163 -189 l 58 -129 l 239 186 "},"-":{"ha":421,"x_min":0,"x_max":0,"o":"m 319 399 l 78 399 l 78 519 l 319 519 "},".":{"ha":285,"x_min":0,"x_max":0,"o":"m 199 0 l 78 0 l 78 121 l 199 121 "},"/":{"ha":763,"x_min":0,"x_max":0,"o":"m 744 975 l 122 -103 l 18 -43 l 640 1035 "},":":{"ha":300,"x_min":0,"x_max":0,"o":"m -224 0 l -344 0 l -344 121 l -224 121 m -224 333 l -344 333 l -344 454 l -224 454 "},";":{"ha":0,"x_min":0,"x_max":0,"o":"m -78 125 l -260 -189 l -364 -129 l -183 186 m -112 333 l -233 333 l -233 454 l -112 454 "},"<":{"ha":508,"x_min":0,"x_max":0,"o":"m 501 -97 l 396 -158 l 38 450 l 396 1058 l 501 997 l 178 450 "},"=":{"ha":619,"x_min":0,"x_max":0,"o":"m 563 288 l 78 288 l 78 408 l 563 408 m 563 510 l 78 510 l 78 631 l 563 631 "},">":{"ha":556,"x_min":0,"x_max":0,"o":"m 501 450 l 143 -158 l 38 -97 l 361 450 l 38 997 l 143 1058 "},"?":{"ha":801,"x_min":0,"x_max":0,"o":"m 490 0 l 368 0 l 368 121 l 490 121 m 747 447 l 621 321 l 490 321 l 490 222 l 368 222 l 368 442 l 572 442 l 626 497 l 626 714 l 572 768 l 208 768 l 118 678 l 33 764 l 160 889 l 621 889 l 747 764 "},"@":{"ha":1107,"x_min":0,"x_max":0,"o":"m 678 232 l 678 464 l 625 518 l 471 518 l 417 464 l 417 286 l 471 232 m 1044 236 l 918 111 l 422 111 l 294 236 l 294 514 l 422 639 l 676 639 l 803 513 l 803 233 l 869 232 l 924 286 l 924 703 l 869 757 l 238 757 l 183 703 l 183 53 l 238 -1 l 800 -1 l 800 -122 l 189 -122 l 61 3 l 61 753 l 189 878 l 918 878 l 1044 753 "},"A":{"ha":844,"x_min":0,"x_max":0,"o":"m 550 369 l 425 713 l 301 369 m 813 0 l 685 0 l 594 249 l 257 249 l 167 0 l 38 0 l 360 889 l 490 889 "},"B":{"ha":769,"x_min":0,"x_max":0,"o":"m 575 178 l 575 324 l 521 378 l 196 378 l 196 122 l 519 122 m 575 593 l 575 711 l 519 768 l 196 768 l 196 499 l 481 499 m 696 126 l 568 0 l 75 0 l 75 889 l 568 889 l 696 763 l 696 542 l 611 458 l 696 375 "},"C":{"ha":806,"x_min":0,"x_max":0,"o":"m 790 125 l 664 0 l 196 0 l 68 125 l 68 764 l 196 889 l 664 889 l 790 764 l 706 678 l 615 768 l 244 768 l 190 714 l 190 175 l 244 121 l 615 121 l 706 211 "},"D":{"ha":771,"x_min":0,"x_max":0,"o":"m 575 178 l 575 711 l 519 768 l 197 768 l 197 121 l 519 121 m 697 126 l 569 0 l 75 0 l 75 889 l 569 889 l 697 763 "},"E":{"ha":578,"x_min":0,"x_max":0,"o":"m 529 0 l 65 0 l 65 889 l 529 889 l 529 768 l 186 768 l 186 517 l 449 517 l 449 394 l 186 394 l 186 121 l 529 121 "},"F":{"ha":506,"x_min":0,"x_max":0,"o":"m 467 768 l 183 768 l 183 525 l 365 525 l 365 403 l 183 403 l 183 0 l 63 0 l 63 889 l 467 889 "},"G":{"ha":842,"x_min":0,"x_max":0,"o":"m 796 125 l 669 0 l 200 0 l 74 125 l 74 764 l 200 889 l 669 889 l 796 764 l 710 678 l 621 768 l 249 768 l 194 714 l 194 175 l 249 121 l 621 121 l 676 176 l 676 333 l 538 333 l 538 454 l 796 454 "},"H":{"ha":904,"x_min":0,"x_max":0,"o":"m 822 1 l 701 1 l 701 381 l 199 381 l 199 0 l 78 0 l 78 888 l 199 888 l 199 503 l 701 503 l 701 889 l 822 889 "},"I":{"ha":281,"x_min":0,"x_max":0,"o":"m 199 0 l 78 0 l 78 889 l 199 889 "},"J":{"ha":718,"x_min":0,"x_max":0,"o":"m 643 126 l 515 0 l 176 0 l 50 126 l 136 213 l 226 121 l 465 121 l 521 176 l 521 889 l 643 889 "},"K":{"ha":664,"x_min":0,"x_max":0,"o":"m 674 0 l 533 0 l 240 508 l 178 446 l 178 1 l 57 1 l 57 889 l 178 889 l 178 618 l 450 889 l 621 889 l 329 597 "},"L":{"ha":526,"x_min":0,"x_max":0,"o":"m 503 0 l 58 0 l 58 889 l 179 889 l 179 121 l 503 121 "},"M":{"ha":842,"x_min":0,"x_max":0,"o":"m 760 0 l 639 0 l 639 586 l 457 0 l 381 0 l 199 586 l 199 0 l 78 0 l 78 889 l 225 889 l 419 286 l 614 889 l 760 889 "},"N":{"ha":774,"x_min":0,"x_max":0,"o":"m 692 0 l 571 0 l 199 644 l 199 0 l 78 0 l 78 889 l 199 889 l 571 243 l 571 889 l 692 889 "},"O":{"ha":913,"x_min":0,"x_max":0,"o":"m 715 175 l 715 714 l 661 768 l 249 768 l 194 714 l 194 175 l 249 121 l 661 121 m 838 125 l 710 0 l 200 0 l 74 125 l 74 764 l 200 889 l 710 889 l 838 764 "},"P":{"ha":667,"x_min":0,"x_max":0,"o":"m 511 592 l 511 713 l 457 768 l 178 768 l 178 536 l 457 536 m 633 540 l 506 414 l 178 414 l 178 0 l 57 0 l 57 889 l 506 889 l 633 763 "},"Q":{"ha":894,"x_min":0,"x_max":0,"o":"m 707 208 l 707 714 l 653 768 l 240 768 l 186 714 l 186 175 l 240 121 l 622 121 l 568 175 l 653 261 m 881 33 l 796 -53 l 722 21 l 701 0 l 192 0 l 64 125 l 64 764 l 192 889 l 701 889 l 828 764 l 828 125 l 808 107 "},"R":{"ha":786,"x_min":0,"x_max":0,"o":"m 604 592 l 604 713 l 549 768 l 189 768 l 189 536 l 549 536 m 725 540 l 599 414 l 464 414 l 703 0 l 579 0 l 340 414 l 189 414 l 189 0 l 68 0 l 68 889 l 599 889 l 725 763 "},"S":{"ha":767,"x_min":0,"x_max":0,"o":"m 714 125 l 586 0 l 183 0 l 57 125 l 142 211 l 232 121 l 538 121 l 592 175 l 592 324 l 538 379 l 183 379 l 57 504 l 57 764 l 183 889 l 586 889 l 714 764 l 628 678 l 538 768 l 232 768 l 178 714 l 178 554 l 232 500 l 586 500 l 714 374 "},"T":{"ha":621,"x_min":0,"x_max":0,"o":"m 578 768 l 375 768 l 375 0 l 256 0 l 256 768 l 53 768 l 53 889 l 578 889 "},"U":{"ha":868,"x_min":0,"x_max":0,"o":"m 793 125 l 665 0 l 203 0 l 76 125 l 76 889 l 197 889 l 197 175 l 251 121 l 617 121 l 672 176 l 672 889 l 793 889 "},"V":{"ha":944,"x_min":0,"x_max":0,"o":"m 917 889 l 503 0 l 442 0 l 28 889 l 163 889 l 472 222 l 782 889 "},"W":{"ha":1183,"x_min":0,"x_max":0,"o":"m 1129 889 l 892 0 l 765 0 l 588 657 l 413 0 l 288 0 l 49 889 l 175 889 l 350 232 l 525 889 l 651 889 l 828 233 l 1003 889 "},"X":{"ha":744,"x_min":0,"x_max":0,"o":"m 731 0 l 592 0 l 388 353 l 183 0 l 43 0 l 317 475 l 78 889 l 219 889 l 386 597 l 556 889 l 697 889 l 458 475 "},"Y":{"ha":732,"x_min":0,"x_max":0,"o":"m 683 889 l 425 440 l 425 0 l 304 0 l 304 440 l 46 889 l 183 889 l 364 576 l 544 889 "},"Z":{"ha":647,"x_min":0,"x_max":0,"o":"m 592 0 l 43 0 l 42 121 l 451 768 l 43 768 l 43 889 l 592 889 l 592 768 l 182 121 l 592 121 "},"[":{"ha":410,"x_min":0,"x_max":0,"o":"m 360 -1 l 360 -122 l 78 -122 l 76 1013 l 360 1011 l 360 890 l 197 892 l 197 -1 "},"\\":{"ha":763,"x_min":0,"x_max":0,"o":"m 744 -43 l 640 -103 l 18 975 l 122 1035 "},"]":{"ha":438,"x_min":0,"x_max":0,"o":"m 360 1013 l 358 -122 l 76 -122 l 76 -1 l 239 -1 l 239 892 l 76 890 l 76 1011 "},"^":{"ha":613,"x_min":0,"x_max":0,"o":"m 539 479 l 482 378 l 297 485 l 114 378 l 56 479 l 297 618 "},"_":{"ha":714,"x_min":0,"x_max":0,"o":"m 719 -62 l -6 -62 l -6 58 l 719 58 "},"`":{"ha":390,"x_min":0,"x_max":0,"o":"m 417 1021 l 360 921 l 61 1093 l 118 1193 "},"a":{"ha":844,"x_min":0,"x_max":0,"o":"m 550 369 l 425 713 l 301 369 m 813 0 l 685 0 l 594 249 l 257 249 l 167 0 l 38 0 l 360 889 l 490 889 "},"b":{"ha":769,"x_min":0,"x_max":0,"o":"m 575 178 l 575 324 l 521 378 l 196 378 l 196 122 l 519 122 m 575 593 l 575 711 l 519 768 l 196 768 l 196 499 l 481 499 m 696 126 l 568 0 l 75 0 l 75 889 l 568 889 l 696 763 l 696 542 l 611 458 l 696 375 "},"c":{"ha":806,"x_min":0,"x_max":0,"o":"m 790 125 l 664 0 l 196 0 l 68 125 l 68 764 l 196 889 l 664 889 l 790 764 l 706 678 l 615 768 l 244 768 l 190 714 l 190 175 l 244 121 l 615 121 l 706 211 "},"d":{"ha":771,"x_min":0,"x_max":0,"o":"m 575 178 l 575 711 l 519 768 l 197 768 l 197 121 l 519 121 m 697 126 l 569 0 l 75 0 l 75 889 l 569 889 l 697 763 "},"e":{"ha":578,"x_min":0,"x_max":0,"o":"m 529 0 l 65 0 l 65 889 l 529 889 l 529 768 l 186 768 l 186 517 l 449 517 l 449 394 l 186 394 l 186 121 l 529 121 "},"f":{"ha":506,"x_min":0,"x_max":0,"o":"m 467 768 l 183 768 l 183 525 l 365 525 l 365 403 l 183 403 l 183 0 l 63 0 l 63 889 l 467 889 "},"g":{"ha":842,"x_min":0,"x_max":0,"o":"m 796 125 l 669 0 l 200 0 l 74 125 l 74 764 l 200 889 l 669 889 l 796 764 l 710 678 l 621 768 l 249 768 l 194 714 l 194 175 l 249 121 l 621 121 l 676 176 l 676 333 l 538 333 l 538 454 l 796 454 "},"h":{"ha":904,"x_min":0,"x_max":0,"o":"m 822 1 l 701 1 l 701 381 l 199 381 l 199 0 l 78 0 l 78 888 l 199 888 l 199 503 l 701 503 l 701 889 l 822 889 "},"i":{"ha":281,"x_min":0,"x_max":0,"o":"m 199 0 l 78 0 l 78 889 l 199 889 "},"j":{"ha":718,"x_min":0,"x_max":0,"o":"m 643 126 l 515 0 l 176 0 l 50 126 l 136 213 l 226 121 l 465 121 l 521 176 l 521 889 l 643 889 "},"k":{"ha":664,"x_min":0,"x_max":0,"o":"m 674 0 l 533 0 l 240 508 l 178 446 l 178 1 l 57 1 l 57 889 l 178 889 l 178 618 l 450 889 l 621 889 l 329 597 "},"l":{"ha":526,"x_min":0,"x_max":0,"o":"m 503 0 l 58 0 l 58 889 l 179 889 l 179 121 l 503 121 "},"m":{"ha":842,"x_min":0,"x_max":0,"o":"m 760 0 l 639 0 l 639 586 l 457 0 l 381 0 l 199 586 l 199 0 l 78 0 l 78 889 l 225 889 l 419 286 l 614 889 l 760 889 "},"n":{"ha":774,"x_min":0,"x_max":0,"o":"m 692 0 l 571 0 l 199 644 l 199 0 l 78 0 l 78 889 l 199 889 l 571 243 l 571 889 l 692 889 "},"o":{"ha":913,"x_min":0,"x_max":0,"o":"m 715 175 l 715 714 l 661 768 l 249 768 l 194 714 l 194 175 l 249 121 l 661 121 m 838 125 l 710 0 l 200 0 l 74 125 l 74 764 l 200 889 l 710 889 l 838 764 "},"p":{"ha":667,"x_min":0,"x_max":0,"o":"m 511 592 l 511 713 l 457 768 l 178 768 l 178 536 l 457 536 m 633 540 l 506 414 l 178 414 l 178 0 l 57 0 l 57 889 l 506 889 l 633 763 "},"q":{"ha":894,"x_min":0,"x_max":0,"o":"m 707 208 l 707 714 l 653 768 l 240 768 l 186 714 l 186 175 l 240 121 l 622 121 l 568 175 l 653 261 m 881 33 l 796 -53 l 722 21 l 701 0 l 192 0 l 64 125 l 64 764 l 192 889 l 701 889 l 828 764 l 828 125 l 808 107 "},"r":{"ha":786,"x_min":0,"x_max":0,"o":"m 604 592 l 604 713 l 549 768 l 189 768 l 189 536 l 549 536 m 725 540 l 599 414 l 464 414 l 703 0 l 579 0 l 340 414 l 189 414 l 189 0 l 68 0 l 68 889 l 599 889 l 725 763 "},"s":{"ha":767,"x_min":0,"x_max":0,"o":"m 714 125 l 586 0 l 183 0 l 57 125 l 142 211 l 232 121 l 538 121 l 592 175 l 592 324 l 538 379 l 183 379 l 57 504 l 57 764 l 183 889 l 586 889 l 714 764 l 628 678 l 538 768 l 232 768 l 178 714 l 178 554 l 232 500 l 586 500 l 714 374 "},"t":{"ha":621,"x_min":0,"x_max":0,"o":"m 578 768 l 375 768 l 375 0 l 256 0 l 256 768 l 53 768 l 53 889 l 578 889 "},"u":{"ha":868,"x_min":0,"x_max":0,"o":"m 793 125 l 665 0 l 203 0 l 76 125 l 76 889 l 197 889 l 197 175 l 251 121 l 617 121 l 672 176 l 672 889 l 793 889 "},"v":{"ha":944,"x_min":0,"x_max":0,"o":"m 917 889 l 503 0 l 442 0 l 28 889 l 163 889 l 472 222 l 782 889 "},"w":{"ha":1183,"x_min":0,"x_max":0,"o":"m 1129 889 l 892 0 l 765 0 l 588 657 l 413 0 l 288 0 l 49 889 l 175 889 l 350 232 l 525 889 l 651 889 l 828 233 l 1003 889 "},"x":{"ha":744,"x_min":0,"x_max":0,"o":"m 731 0 l 592 0 l 388 353 l 183 0 l 43 0 l 317 475 l 78 889 l 219 889 l 386 597 l 556 889 l 697 889 l 458 475 "},"y":{"ha":732,"x_min":0,"x_max":0,"o":"m 683 889 l 425 440 l 425 0 l 304 0 l 304 440 l 46 889 l 183 889 l 364 576 l 544 889 "},"z":{"ha":647,"x_min":0,"x_max":0,"o":"m 592 0 l 43 0 l 42 121 l 451 768 l 43 768 l 43 889 l 592 889 l 592 768 l 182 121 l 592 121 "},"{":{"ha":532,"x_min":0,"x_max":0,"o":"m 482 1011 l 482 890 l 372 890 l 318 836 l 318 53 l 372 -1 l 482 -1 l 482 -122 l 324 -122 l 196 3 l 196 385 l 75 385 l 75 506 l 196 506 l 196 886 l 324 1011 "},"|":{"ha":272,"x_min":0,"x_max":0,"o":"m 197 1089 l 197 -156 l 75 -156 l 75 1089 "},"}":{"ha":532,"x_min":0,"x_max":0,"o":"m 456 383 l 336 383 l 336 3 l 208 -122 l 50 -122 l 50 -1 l 160 -1 l 214 53 l 214 836 l 160 890 l 50 890 l 50 1011 l 208 1011 l 336 886 l 336 504 l 456 504 "},"~":{"ha":751,"x_min":0,"x_max":0,"o":"m 651 517 l 536 403 l 83 403 l 199 517 "},"€":{"ha":983,"x_min":0,"x_max":0,"o":"m 954 128 l 828 0 l 358 0 l 232 125 l 232 265 l 42 265 l 113 386 l 232 386 l 232 488 l 42 488 l 113 608 l 232 608 l 232 764 l 358 889 l 828 889 l 954 763 l 868 678 l 778 768 l 407 768 l 353 714 l 353 608 l 708 608 l 638 488 l 353 488 l 353 386 l 597 386 l 526 265 l 353 265 l 353 175 l 407 121 l 778 121 l 868 213 "},"‚":{"ha":6,"x_min":0,"x_max":0,"o":"m -78 125 l -260 -189 l -364 -129 l -183 186 "},"„":{"ha":253,"x_min":0,"x_max":0,"o":"m -78 129 l -260 -186 l -364 -125 l -183 189 m 169 129 l -12 -186 l -118 -125 l 64 189 "},"ˆ":{"ha":393,"x_min":0,"x_max":0,"o":"m 539 1053 l 482 953 l 297 1060 l 114 953 l 56 1053 l 297 1193 "},"Š":{"ha":767,"x_min":0,"x_max":0,"o":"m 714 125 l 586 0 l 183 0 l 57 125 l 142 211 l 232 121 l 538 121 l 592 175 l 592 324 l 538 379 l 183 379 l 57 504 l 57 764 l 183 889 l 586 889 l 714 764 l 628 678 l 538 768 l 232 768 l 178 714 l 178 554 l 232 500 l 586 500 l 714 374 m 628 1092 l 386 953 l 144 1092 l 203 1193 l 386 1086 l 571 1193 "},"‹":{"ha":386,"x_min":0,"x_max":0,"o":"m 314 213 l 208 151 l 63 406 l 208 661 l 314 600 l 203 406 "},"Œ":{"ha":1106,"x_min":0,"x_max":0,"o":"m 594 208 l 594 681 l 507 768 l 239 768 l 185 714 l 185 175 l 239 121 l 507 121 m 1058 0 l 594 0 l 594 39 l 556 0 l 190 0 l 63 125 l 63 764 l 190 889 l 556 889 l 594 850 l 594 889 l 1058 889 l 1058 768 l 715 768 l 715 517 l 978 517 l 978 394 l 715 394 l 715 121 l 1058 121 "},"‘":{"ha":428,"x_min":0,"x_max":0,"o":"m 344 764 l 239 703 l 57 1018 l 161 1078 "},"’":{"ha":353,"x_min":0,"x_max":0,"o":"m 344 1018 l 161 703 l 57 764 l 239 1078 "},"“":{"ha":674,"x_min":0,"x_max":0,"o":"m 344 764 l 239 703 l 57 1018 l 161 1078 m 590 764 l 485 703 l 304 1018 l 408 1078 "},"”":{"ha":613,"x_min":0,"x_max":0,"o":"m 344 1018 l 161 703 l 57 764 l 239 1078 m 590 1018 l 408 703 l 304 764 l 485 1078 "},"•":{"ha":388,"x_min":0,"x_max":0,"o":"m 365 399 l 193 228 l 22 399 l 193 571 "},"–":{"ha":658,"x_min":0,"x_max":0,"o":"m 563 399 l 78 399 l 78 519 l 563 519 "},"—":{"ha":900,"x_min":0,"x_max":0,"o":"m 803 399 l 78 399 l 78 519 l 803 519 "},"˜":{"ha":511,"x_min":0,"x_max":0,"o":"m 669 1117 l 554 1001 l 236 1001 l 351 1117 "},"š":{"ha":767,"x_min":0,"x_max":0,"o":"m 714 125 l 586 0 l 183 0 l 57 125 l 142 211 l 232 121 l 538 121 l 592 175 l 592 324 l 538 379 l 183 379 l 57 504 l 57 764 l 183 889 l 586 889 l 714 764 l 628 678 l 538 768 l 232 768 l 178 714 l 178 554 l 232 500 l 586 500 l 714 374 m 628 1092 l 386 953 l 144 1092 l 203 1193 l 386 1086 l 571 1193 "},"›":{"ha":381,"x_min":0,"x_max":0,"o":"m 314 406 l 168 151 l 63 213 l 175 406 l 63 600 l 168 661 "},"œ":{"ha":1106,"x_min":0,"x_max":0,"o":"m 594 208 l 594 681 l 507 768 l 239 768 l 185 714 l 185 175 l 239 121 l 507 121 m 1058 0 l 594 0 l 594 39 l 556 0 l 190 0 l 63 125 l 63 764 l 190 889 l 556 889 l 594 850 l 594 889 l 1058 889 l 1058 768 l 715 768 l 715 517 l 978 517 l 978 394 l 715 394 l 715 121 l 1058 121 "},"Ÿ":{"ha":732,"x_min":0,"x_max":0,"o":"m 683 889 l 425 440 l 425 0 l 304 0 l 304 440 l 46 889 l 183 889 l 364 576 l 544 889 m 299 1000 l 178 1000 l 178 1121 l 299 1121 m 549 1000 l 428 1000 l 428 1121 l 549 1121 "},"¡":{"ha":274,"x_min":0,"x_max":0,"o":"m 199 0 l 78 0 l 78 667 l 199 667 m 199 768 l 78 768 l 78 889 l 199 889 "},"¢":{"ha":722,"x_min":0,"x_max":0,"o":"m 308 232 l 308 657 l 233 657 l 179 603 l 179 286 l 233 232 m 669 236 l 543 111 l 429 111 l 429 0 l 308 0 l 308 111 l 185 111 l 58 236 l 58 653 l 185 778 l 308 778 l 308 889 l 429 889 l 429 778 l 543 778 l 669 653 l 583 567 l 493 657 l 429 657 l 429 232 l 493 232 l 583 322 "},"£":{"ha":867,"x_min":0,"x_max":0,"o":"m 840 0 l 239 0 l 240 381 l 50 381 l 119 503 l 240 503 l 239 764 l 367 889 l 714 889 l 840 764 l 756 678 l 665 768 l 415 768 l 361 714 l 361 503 l 604 503 l 535 381 l 361 381 l 361 121 l 840 121 "},"¥":{"ha":683,"x_min":0,"x_max":0,"o":"m 693 889 l 503 558 l 608 558 l 608 438 l 435 438 l 435 347 l 608 347 l 608 226 l 435 226 l 435 0 l 314 0 l 314 226 l 124 226 l 124 347 l 314 347 l 314 438 l 124 438 l 124 558 l 246 558 l 56 889 l 193 889 l 375 576 l 554 889 "},"¨":{"ha":296,"x_min":0,"x_max":0,"o":"m 199 1000 l 78 1000 l 78 1121 l 199 1121 m 449 1000 l 328 1000 l 328 1121 l 449 1121 "},"©":{"ha":2111,"x_min":0,"x_max":0,"o":"m 201 946 b 163 885 199 925 190 885 b 118 979 122 885 118 951 b 163 1075 118 1008 122 1075 b 201 1018 190 1075 197 1040 l 176 1006 b 163 1036 176 1014 174 1036 b 143 979 142 1036 143 994 b 160 922 143 968 142 922 b 176 963 174 922 176 953 m 522 69 l 522 174 b 513 206 522 185 521 199 b 504 176 506 199 504 186 l 504 65 b 513 35 504 56 507 44 b 522 69 521 44 522 57 m 444 446 l 444 615 b 425 572 428 610 425 588 l 425 483 b 439 443 425 474 426 446 m 864 171 l 864 182 b 856 210 864 192 863 203 b 846 163 847 196 846 179 l 846 136 b 864 171 860 142 864 158 m 222 979 b 161 1108 222 1017 211 1108 b 100 979 111 1108 100 1017 b 161 851 100 943 111 851 b 222 979 210 851 222 944 m 646 482 l 646 589 b 636 619 646 600 644 613 b 628 594 629 614 628 603 l 628 478 b 636 449 628 468 629 457 b 646 482 643 458 646 471 m 1088 182 b 1082 197 1088 188 1085 194 b 1065 138 1068 194 1065 149 l 1065 113 b 1072 97 1065 110 1069 101 b 1088 182 1086 106 1088 167 m 1222 32 l 1222 201 b 1203 157 1206 196 1203 172 l 1203 75 b 1215 29 1203 67 1206 33 m 822 446 l 822 617 b 803 576 806 613 803 592 l 803 490 b 815 442 803 481 804 446 m 429 978 b 428 1053 429 1014 429 1039 b 417 1100 426 1075 422 1090 b 406 1056 411 1092 407 1078 b 404 989 404 1043 404 1021 b 406 910 404 950 406 924 b 418 865 408 888 411 874 b 429 978 426 878 429 915 m 1332 68 l 1332 181 b 1324 206 1332 189 1331 200 b 1314 174 1315 199 1314 185 l 1314 67 b 1324 35 1314 56 1317 44 b 1332 68 1331 44 1332 57 m 1093 482 l 1093 588 b 1083 619 1093 599 1092 613 b 1075 590 1076 613 1075 600 l 1075 479 b 1083 449 1075 469 1078 458 b 1093 482 1090 458 1093 471 m 642 1046 b 628 1100 642 1072 638 1090 b 615 1053 619 1093 615 1078 b 635 993 615 1026 622 1006 b 642 1046 639 1006 642 1024 m 1643 69 l 1643 174 b 1633 206 1643 185 1642 197 b 1624 154 1624 196 1624 168 l 1624 89 b 1633 35 1624 72 1625 49 b 1643 69 1640 46 1643 58 m 940 858 l 940 1029 b 921 983 924 1024 921 999 l 921 900 b 933 856 921 890 922 860 m 1142 894 l 1142 1004 b 1133 1033 1142 1015 1139 1025 b 1124 1000 1125 1025 1124 1011 l 1124 896 b 1133 861 1124 883 1125 871 b 1142 894 1139 872 1142 883 m 1618 482 l 1618 590 b 1610 619 1618 600 1617 613 b 1600 588 1601 611 1600 599 l 1600 482 b 1610 449 1600 471 1601 457 b 1618 482 1615 460 1618 471 m 1317 858 l 1317 1031 b 1297 982 1299 1024 1297 999 l 1297 906 b 1310 854 1297 896 1299 858 m 1564 894 b 1556 1033 1564 910 1569 1014 b 1544 997 1546 1025 1544 1010 l 1544 896 b 1556 861 1544 883 1547 871 b 1564 894 1561 872 1564 883 m 1906 999 l 1906 1008 b 1899 1038 1906 1019 1903 1029 b 1886 992 1890 1025 1886 1008 l 1886 963 b 1906 999 1901 968 1906 985 m 363 -6 l 317 -6 l 317 133 l 294 133 l 294 -6 l 251 -6 l 251 322 l 294 322 l 294 175 l 317 175 l 317 322 l 363 322 m 456 -6 l 385 -6 l 385 322 l 429 322 l 429 38 l 456 38 m 561 121 b 514 -8 561 92 557 -8 b 465 121 467 -8 465 89 b 513 250 465 153 468 250 b 561 121 558 250 561 153 m 672 -6 l 635 -6 l 635 199 l 625 211 l 614 204 l 614 -6 l 578 -6 l 578 322 l 614 322 l 614 235 b 642 250 621 243 631 250 b 672 201 667 250 672 222 m 789 -6 l 750 -6 l 750 201 l 740 211 l 731 206 l 731 -6 l 694 -6 b 697 93 694 28 697 60 l 697 172 b 686 222 697 186 696 213 l 710 250 b 729 232 718 247 725 240 b 757 250 736 240 746 250 b 789 204 782 250 789 225 m 365 407 l 328 407 l 328 613 l 318 625 l 307 618 l 307 407 l 269 407 l 269 736 l 307 736 l 307 647 b 335 664 314 656 324 664 b 365 615 360 664 365 636 m 492 439 l 471 406 b 450 426 461 410 454 418 b 424 406 446 417 436 406 b 386 497 392 406 386 474 l 386 554 b 465 664 386 603 408 664 l 482 664 b 479 578 482 636 479 607 l 479 486 b 492 439 479 471 481 451 m 903 175 b 847 93 903 140 883 103 b 901 38 847 57 860 29 l 901 -4 b 879 -7 894 -7 886 -7 b 808 114 818 -7 808 68 l 808 163 b 854 250 808 193 814 250 b 903 175 893 250 903 207 m 579 615 b 542 574 560 613 542 594 l 542 407 l 506 407 b 508 504 506 440 508 472 l 508 583 b 496 635 508 599 508 624 l 519 664 b 542 626 535 658 542 642 b 579 664 551 640 561 660 m 993 201 b 957 160 974 199 957 181 l 957 -6 l 919 -6 b 924 94 919 28 924 61 l 924 169 b 911 222 924 186 922 210 l 933 250 b 957 214 949 246 956 229 b 993 250 965 228 975 247 m 243 979 b 161 813 243 931 228 813 b 76 979 93 813 76 929 b 161 1149 76 1031 93 1149 b 243 979 228 1149 243 1029 m 685 533 b 638 404 685 504 681 404 b 589 533 590 404 589 501 b 635 664 589 564 590 664 b 685 533 682 664 685 567 m 1144 174 b 1104 61 1144 151 1135 61 b 1088 82 1094 61 1089 75 b 1067 61 1086 72 1078 61 b 1042 131 1044 61 1042 115 b 1078 232 1042 151 1050 232 b 1094 218 1086 232 1092 225 l 1094 225 l 1117 225 b 1104 113 1113 188 1104 151 l 1110 100 b 1122 154 1122 114 1122 136 b 1083 267 1122 183 1126 267 b 1031 139 1038 267 1031 172 b 1079 21 1031 108 1036 21 b 1122 67 1103 21 1115 49 l 1132 32 b 1078 -15 1121 11 1104 -15 b 1011 140 1019 -15 1011 99 b 1082 300 1011 185 1021 300 b 1144 174 1135 300 1144 213 m 342 818 l 250 818 b 281 954 261 857 271 903 b 293 1063 289 1004 293 1040 b 271 1100 293 1088 286 1100 b 250 1090 264 1100 257 1097 l 250 1133 b 288 1150 264 1144 276 1150 b 319 1138 300 1150 311 1146 b 339 1069 332 1124 339 1101 b 307 861 339 1026 328 957 l 342 861 m 753 432 l 724 406 b 703 439 710 411 703 426 l 703 736 l 740 736 l 739 533 l 739 489 b 753 432 739 472 739 444 m 1271 25 l 1249 -7 b 1229 14 1239 -4 1232 6 b 1201 -7 1224 4 1214 -7 b 1165 82 1169 -7 1165 60 l 1165 144 b 1243 250 1165 192 1189 250 l 1260 250 b 1257 164 1260 222 1257 193 l 1257 78 b 1271 25 1257 61 1257 38 m 868 436 l 846 404 b 826 426 836 408 829 417 b 801 404 822 417 814 404 b 763 485 767 404 763 460 l 763 560 b 822 664 763 597 774 664 l 822 736 l 858 736 b 856 597 858 690 856 643 l 856 500 b 868 436 856 481 857 454 m 476 979 b 442 826 476 900 465 849 b 419 815 435 819 428 815 b 393 826 408 815 400 819 b 357 982 369 849 357 901 b 392 1139 357 1064 369 1115 b 417 1150 399 1146 407 1150 b 456 1117 432 1150 446 1139 b 476 979 469 1088 476 1042 m 944 463 b 901 404 944 436 933 404 b 875 411 892 404 883 407 l 875 450 l 890 443 b 910 463 900 444 910 453 b 875 606 910 514 875 556 b 915 664 875 631 885 664 b 940 654 925 664 933 660 l 940 619 l 926 626 b 911 607 917 626 911 617 b 944 463 911 557 944 514 m 1371 121 b 1325 -8 1371 92 1368 -8 b 1276 121 1279 -8 1276 89 b 1322 250 1276 151 1279 250 b 1371 121 1369 250 1371 154 m 1494 15 b 1471 -8 1494 3 1483 -8 b 1444 15 1458 -8 1444 3 b 1471 40 1444 29 1458 40 b 1494 15 1483 40 1494 28 m 547 818 l 504 818 l 504 1076 l 489 1076 l 489 1082 l 547 1151 m 1026 628 l 1008 628 l 1008 426 b 954 360 1008 390 996 360 l 954 400 b 969 431 968 400 969 421 l 969 628 l 954 628 l 954 660 l 969 660 b 1019 739 969 697 972 739 l 1026 738 l 1026 703 b 1007 681 1015 701 1006 693 l 1008 660 l 1026 660 m 1440 19 l 1411 -7 b 1390 25 1397 -3 1390 13 l 1390 322 l 1428 322 l 1426 118 l 1426 81 b 1440 19 1426 64 1426 32 m 686 1042 b 657 915 686 1003 676 961 b 594 815 638 872 618 839 l 568 851 b 619 944 589 876 607 907 b 571 1046 588 969 571 1003 b 592 1126 571 1081 578 1108 b 628 1150 601 1142 614 1150 b 672 1114 647 1150 661 1138 b 686 1042 681 1093 686 1069 m 1132 533 b 1085 404 1132 504 1128 404 b 1036 533 1038 404 1036 501 b 1083 664 1036 565 1039 664 b 1132 533 1129 664 1132 565 m 1576 -1 b 1556 -8 1574 -1 1558 -8 b 1504 85 1513 -8 1504 53 l 1504 160 b 1557 250 1504 193 1515 250 b 1575 247 1563 250 1569 250 l 1575 207 l 1567 211 b 1542 158 1544 214 1542 174 l 1542 78 b 1576 35 1542 54 1544 25 m 1244 407 l 1206 407 l 1206 615 l 1196 625 l 1186 619 l 1186 407 l 1149 407 b 1151 507 1149 440 1151 474 l 1151 589 b 1142 635 1151 601 1150 625 l 1165 664 b 1183 644 1174 661 1179 653 b 1213 664 1190 654 1200 664 b 1244 618 1238 664 1244 639 m 1682 121 b 1635 -8 1682 92 1678 -8 b 1586 121 1588 -8 1586 89 b 1633 250 1586 153 1588 250 b 1682 121 1679 250 1682 153 m 860 821 l 817 821 l 817 960 l 794 960 l 794 821 l 749 821 l 749 1150 l 794 1150 l 794 1003 l 817 1003 l 817 1150 l 860 1150 m 1333 413 b 1314 406 1331 413 1317 406 b 1278 450 1288 406 1278 426 l 1278 628 l 1258 628 l 1258 639 b 1304 703 1276 658 1290 681 l 1314 703 l 1314 660 l 1333 660 l 1333 628 l 1314 628 l 1314 456 l 1325 443 l 1333 446 m 1471 428 b 1444 404 1471 415 1457 404 b 1421 428 1432 404 1421 415 b 1444 454 1421 442 1431 454 b 1471 428 1458 454 1471 442 m 988 851 l 965 818 b 946 840 957 824 950 832 b 919 818 942 831 932 818 b 883 910 888 818 883 888 l 883 972 b 960 1076 883 1018 906 1076 l 978 1076 b 975 996 978 1050 975 1024 l 975 900 b 988 851 975 885 976 864 m 1853 -6 l 1815 -6 l 1815 197 l 1806 211 l 1796 203 l 1796 -6 l 1757 -6 l 1757 199 l 1749 211 l 1738 203 l 1738 -6 l 1701 -6 l 1701 207 l 1694 224 l 1717 250 b 1736 232 1725 247 1733 242 b 1765 250 1743 242 1753 250 b 1793 232 1778 250 1788 243 b 1822 250 1799 243 1810 250 b 1853 206 1844 250 1853 225 m 1413 463 b 1369 404 1413 436 1401 404 b 1344 411 1361 404 1351 407 l 1344 450 l 1360 443 b 1378 463 1371 443 1378 453 b 1344 606 1378 513 1344 556 b 1383 664 1344 631 1353 664 b 1408 654 1392 664 1401 660 l 1408 619 l 1394 626 b 1381 607 1385 626 1381 615 b 1413 463 1381 557 1413 514 m 1075 1029 b 1039 986 1057 1024 1039 1007 l 1039 821 l 1001 821 b 1004 918 1001 854 1004 886 l 1004 994 b 993 1049 1004 1011 1003 1035 l 1015 1076 b 1039 1040 1029 1071 1038 1056 b 1075 1076 1047 1054 1057 1074 m 1550 411 l 1532 404 b 1479 510 1483 404 1479 475 l 1479 546 b 1533 664 1479 582 1482 664 b 1550 660 1538 664 1546 661 l 1550 621 l 1540 625 b 1518 572 1521 625 1518 586 l 1518 488 b 1539 444 1518 475 1519 444 l 1550 449 m 1179 947 b 1135 818 1179 919 1176 818 b 1085 947 1086 818 1085 914 b 1132 1076 1085 979 1088 1076 b 1179 947 1178 1076 1179 979 m 1656 533 b 1611 404 1656 504 1654 404 b 1563 533 1564 404 1563 501 b 1608 664 1563 564 1564 664 b 1656 533 1656 664 1656 567 m 1249 846 l 1219 818 b 1199 851 1206 824 1199 838 l 1199 1150 l 1238 1150 b 1232 932 1238 1078 1232 1004 b 1249 846 1232 911 1231 860 m 1828 407 l 1790 407 l 1790 611 l 1781 625 l 1771 617 l 1771 407 l 1733 407 l 1733 613 l 1724 625 l 1714 617 l 1714 407 l 1676 407 b 1678 481 1676 432 1678 456 b 1669 636 1678 483 1679 622 l 1692 664 b 1713 643 1701 661 1710 654 b 1742 664 1718 654 1729 664 b 1768 644 1753 664 1763 654 b 1799 664 1775 656 1786 664 b 1828 619 1819 664 1828 638 m 1364 850 l 1343 818 b 1321 840 1332 821 1324 831 b 1296 818 1317 831 1308 818 b 1260 899 1263 818 1260 875 l 1260 972 b 1317 1076 1260 1010 1268 1076 l 1317 1150 l 1356 1150 b 1351 992 1356 1097 1351 1044 l 1351 924 b 1364 850 1351 901 1351 869 m 1497 821 l 1426 821 l 1426 1150 l 1471 1150 l 1471 864 l 1497 864 m 1601 947 b 1556 818 1601 918 1599 818 b 1506 947 1508 818 1506 915 b 1553 1076 1506 978 1510 1076 b 1601 947 1599 1076 1601 979 m 1714 821 l 1676 821 l 1676 1026 l 1665 1039 l 1656 1032 l 1656 821 l 1618 821 l 1618 1150 l 1656 1150 l 1656 1061 b 1683 1076 1663 1069 1672 1076 b 1714 1029 1708 1076 1714 1050 m 1829 821 l 1792 821 l 1792 1029 l 1783 1039 l 1772 1033 l 1772 821 l 1735 821 b 1738 919 1735 854 1738 886 l 1738 1003 b 1726 1049 1738 1017 1738 1040 l 1750 1076 b 1769 1058 1758 1075 1767 1068 b 1800 1076 1776 1069 1788 1076 b 1829 1032 1824 1076 1829 1051 m 1943 1003 b 1889 921 1943 968 1925 931 l 1889 914 b 1942 864 1889 878 1903 857 l 1942 822 b 1922 818 1936 821 1929 818 b 1849 946 1858 818 1849 899 l 1849 986 b 1897 1076 1849 1019 1853 1076 b 1943 1003 1935 1076 1943 1033 m 2035 1029 b 1997 986 2015 1025 1997 1008 l 1997 821 l 1961 821 b 1964 918 1961 854 1964 886 l 1964 997 b 1951 1049 1964 1014 1964 1036 l 1975 1076 b 1997 1040 1990 1072 1997 1056 b 2035 1076 2007 1054 2017 1074 "},"ª":{"ha":593,"x_min":0,"x_max":0,"o":"m 394 503 l 394 765 l 194 765 l 194 503 m 421 121 l 178 121 l 178 242 l 421 242 m 519 383 l 399 383 l 399 456 l 324 382 l 154 382 l 74 463 l 74 807 l 154 888 l 324 888 l 399 813 l 399 889 l 519 889 "},"«":{"ha":242,"x_min":0,"x_max":0,"o":"m -108 213 l -214 151 l -360 406 l -214 661 l -108 600 l -219 406 m 169 213 l 64 151 l -82 406 l 64 661 l 169 600 l 58 406 "},"®":{"ha":1358,"x_min":0,"x_max":0,"o":"m 439 479 b 417 435 438 465 425 446 l 396 438 b 417 469 404 447 411 458 l 413 463 l 399 474 l 414 492 l 421 478 m 561 872 l 525 849 l 518 857 l 500 857 l 493 860 l 476 857 l 424 879 b 561 872 471 874 515 871 m 626 915 l 608 894 b 592 893 603 894 597 893 b 538 901 574 893 554 899 m 583 1036 l 571 1026 l 478 1043 b 514 1044 490 1043 501 1044 l 525 1044 b 583 1036 542 1044 567 1043 m 624 1092 b 460 1057 568 1072 517 1065 b 596 1093 501 1083 549 1093 b 624 1092 606 1093 614 1093 m 681 1049 b 653 1047 671 1047 661 1047 b 569 1068 622 1047 597 1054 l 618 1071 m 483 53 l 482 69 l 479 67 b 482 47 482 60 482 53 m 482 103 l 482 106 l 476 106 l 475 100 l 464 97 l 453 81 l 469 89 l 474 90 l 476 101 m 447 161 l 442 160 l 435 153 l 439 153 m 569 57 l 561 51 l 558 28 b 565 11 558 25 564 14 b 567 25 567 15 567 21 b 563 49 567 33 564 40 m 463 168 l 461 171 l 461 171 l 458 163 l 454 163 l 458 158 l 461 161 m 365 268 l 364 268 l 364 274 l 357 263 l 357 263 m 638 43 l 636 44 l 631 44 l 621 47 l 621 69 l 624 71 l 621 71 l 621 69 b 617 63 615 63 617 63 l 604 60 l 586 68 l 585 83 l 590 88 l 589 90 l 581 96 l 579 96 l 578 83 l 564 86 l 564 89 l 561 88 l 561 83 l 542 72 l 531 71 l 531 68 l 515 64 l 511 71 l 511 64 b 510 47 511 58 511 53 l 511 43 b 511 54 513 47 513 50 l 528 56 b 528 28 529 46 529 38 l 532 35 l 536 28 l 539 31 b 549 57 540 39 542 50 l 557 61 l 556 67 l 569 79 l 576 64 l 582 69 l 586 38 b 594 28 590 36 594 32 l 592 22 l 592 15 b 597 26 593 18 596 22 l 594 38 l 601 56 l 615 57 b 617 40 617 51 617 46 b 613 21 617 33 613 28 l 614 17 l 615 25 l 618 25 l 618 29 l 625 43 m 378 256 l 378 261 l 375 257 l 376 251 m 482 168 l 482 168 l 481 168 m 543 164 l 543 174 l 540 175 l 522 176 l 521 175 l 540 174 l 542 165 l 531 138 l 517 124 l 506 136 l 518 151 l 518 153 l 504 144 l 497 163 l 500 169 b 493 165 497 168 496 167 l 489 149 l 469 144 l 479 167 l 478 165 l 468 147 b 468 136 468 143 468 140 b 467 126 468 133 468 129 b 481 147 472 132 476 139 l 497 143 l 486 129 l 486 128 l 499 136 l 499 115 l 496 115 l 504 119 l 510 114 l 514 114 b 543 164 524 121 543 153 m 400 261 l 400 263 b 397 251 399 258 397 256 m 583 131 l 572 128 l 567 138 l 567 160 l 564 164 l 556 147 l 554 132 l 558 133 l 558 113 l 543 106 l 544 124 l 536 107 b 510 88 528 100 519 93 l 504 76 l 510 78 l 518 88 l 532 88 l 533 90 l 547 103 b 558 104 551 103 554 103 l 561 111 l 568 113 l 574 111 l 582 117 b 583 131 582 121 582 126 m 483 188 l 482 188 l 481 188 l 482 186 m 506 172 l 504 172 l 501 171 m 424 269 l 422 269 b 413 249 419 263 415 256 l 424 261 m 394 297 b 389 290 393 294 390 293 l 394 297 m 468 257 l 468 261 l 468 264 l 463 274 l 457 274 l 453 267 l 446 274 l 442 269 l 438 260 l 432 256 l 428 236 l 428 233 b 432 253 429 240 431 247 b 443 235 436 247 439 240 l 446 238 l 447 240 l 439 250 l 447 254 l 449 263 l 461 257 m 411 297 l 411 297 l 410 294 m 410 310 l 404 306 l 410 306 m 635 86 l 632 96 l 633 75 l 633 76 l 635 74 m 442 293 l 438 296 l 433 296 b 426 285 431 292 428 289 l 428 285 b 442 290 433 285 438 288 m 689 44 l 689 51 l 689 56 l 686 49 l 688 32 b 689 44 688 36 689 40 m 708 21 l 706 32 l 707 19 m 589 160 l 589 161 l 586 165 l 589 160 m 347 410 l 347 411 l 347 411 m 626 136 l 624 139 l 625 133 l 626 132 m 736 24 b 735 31 736 26 735 28 l 736 24 l 736 24 m 572 229 b 569 249 572 235 571 242 l 565 243 l 557 250 l 557 256 l 551 235 l 536 267 b 532 217 533 253 538 228 l 532 201 l 535 200 l 540 203 l 546 233 l 557 219 l 561 197 l 563 197 l 571 213 b 572 229 571 218 572 224 m 776 31 b 769 51 775 39 772 46 l 768 47 b 771 38 768 44 769 40 m 629 229 l 624 236 l 624 243 l 617 243 l 617 235 l 600 232 b 593 272 600 246 599 260 b 588 226 592 257 589 242 l 594 224 b 590 194 593 214 590 204 l 590 192 l 597 194 b 608 214 599 201 604 208 l 625 214 l 621 200 l 621 199 b 629 229 626 208 628 218 m 664 247 l 664 250 b 646 203 657 235 651 218 l 649 201 l 651 188 b 656 229 657 200 658 217 m 538 393 b 526 463 528 414 531 440 b 532 486 526 464 532 485 b 490 571 532 521 521 551 l 483 569 l 479 574 l 464 563 l 456 526 l 450 518 l 446 517 l 450 499 l 436 485 l 433 493 l 421 492 l 394 501 l 376 500 l 374 501 l 361 499 b 347 481 357 492 353 486 l 350 482 l 356 468 l 354 467 l 367 468 l 350 418 b 385 463 363 438 365 447 l 385 442 b 358 383 374 428 358 400 b 360 371 358 379 360 375 b 394 444 360 396 378 426 l 397 413 l 388 404 b 418 336 394 374 393 356 l 418 331 l 421 328 l 422 322 l 429 325 b 464 324 440 324 453 324 b 500 324 476 324 488 325 b 529 367 511 336 521 351 l 528 375 m 682 228 l 675 208 l 676 204 l 679 206 b 682 221 681 211 682 217 m 394 517 l 390 518 l 393 517 m 199 728 b 185 729 194 728 189 729 l 181 729 b 171 728 178 729 175 728 l 169 725 b 199 726 179 728 189 728 m 206 717 l 199 719 l 186 715 l 204 717 m 433 543 l 425 539 l 406 539 b 311 558 365 539 336 546 b 197 671 246 593 229 660 l 192 679 l 188 679 l 188 656 l 224 597 l 231 597 l 236 588 l 244 589 l 247 582 l 256 582 b 310 550 265 569 293 551 l 311 558 b 401 536 331 544 378 536 b 431 538 411 536 421 538 m 379 560 b 335 603 379 569 343 597 b 324 643 335 617 331 631 l 321 642 l 319 619 l 331 581 l 342 575 l 350 583 m 600 406 b 600 422 600 411 600 417 l 586 446 l 578 450 b 576 446 578 449 576 447 b 592 381 576 425 576 396 l 596 382 b 600 406 597 389 600 397 m 464 675 l 464 678 l 440 671 l 407 678 l 436 694 l 433 699 l 418 686 l 393 679 l 364 689 b 356 721 361 697 356 713 b 361 757 356 733 356 746 l 361 764 l 360 764 l 356 758 l 339 758 l 331 736 l 339 708 l 361 685 l 301 696 b 354 683 317 689 336 685 l 389 653 b 211 696 331 668 271 693 b 413 636 272 688 357 667 l 399 613 b 368 593 389 606 379 600 b 381 589 372 593 378 592 l 400 590 l 429 615 l 425 588 l 432 588 l 449 608 l 447 628 l 453 629 l 368 674 l 397 676 b 460 657 418 669 439 663 l 461 658 l 453 664 m 519 588 b 474 599 511 594 485 599 b 463 596 471 599 467 597 b 518 585 482 593 501 594 m 825 332 l 819 333 l 819 342 l 797 349 l 807 354 l 807 354 l 801 357 l 803 364 l 801 365 l 790 369 l 796 374 l 793 375 l 772 372 b 778 389 774 378 776 383 l 763 381 l 757 393 l 761 399 l 764 401 l 760 401 l 761 399 l 743 397 l 738 408 l 738 407 l 714 418 l 700 419 l 694 428 l 653 438 l 649 436 l 650 428 l 672 399 l 674 383 l 683 382 l 688 369 l 678 361 l 669 363 l 676 357 l 694 360 l 704 353 l 688 336 b 676 339 683 338 681 339 l 668 339 l 671 336 l 671 332 l 683 326 l 675 310 l 689 317 l 688 301 l 693 308 l 707 307 l 703 289 l 717 307 l 718 276 l 721 279 l 729 304 l 744 293 l 744 286 l 746 289 l 744 303 l 761 289 l 767 276 l 767 299 l 789 275 l 788 290 b 810 286 794 288 803 286 l 790 301 b 818 307 800 304 810 307 l 814 313 l 825 318 l 824 319 l 814 326 m 401 736 l 399 738 b 392 738 396 738 393 738 b 382 736 388 738 385 738 l 376 731 l 375 721 l 376 713 l 383 708 l 385 710 l 382 713 l 381 732 m 543 560 l 542 589 l 539 588 l 538 568 m 321 821 b 311 819 318 819 314 819 l 310 811 l 315 813 m 319 846 l 304 836 l 304 863 l 300 868 l 290 864 l 292 846 l 304 833 b 319 846 310 836 315 840 m 429 743 b 388 772 417 756 403 765 b 429 743 401 763 414 751 m 751 422 l 751 428 l 747 424 l 744 424 l 740 414 m 761 419 l 754 419 l 754 414 m 775 414 l 771 411 l 774 413 m 792 411 l 792 413 b 786 403 789 410 788 406 l 789 404 m 843 429 b 714 468 785 442 769 439 l 713 468 l 711 468 l 704 472 l 711 471 b 706 490 710 478 708 483 l 710 500 l 692 513 l 685 551 b 657 572 676 560 668 567 l 631 574 l 610 567 l 611 563 l 625 564 l 640 550 l 625 546 l 640 538 l 664 538 l 672 511 l 688 500 l 676 490 l 674 490 l 679 483 l 651 486 b 625 504 643 493 635 500 b 601 525 621 514 610 521 b 583 572 597 542 590 557 l 579 572 l 583 549 l 558 572 l 557 572 l 557 571 b 600 503 571 547 585 525 l 656 472 l 604 481 b 565 518 589 490 576 504 b 603 476 574 506 589 485 b 685 451 631 474 660 465 l 696 453 b 750 439 713 444 732 442 l 750 439 b 843 429 781 435 811 431 m 867 442 b 836 451 856 443 846 447 l 861 467 l 863 474 l 858 486 l 857 488 l 854 483 l 856 476 l 833 463 l 826 463 b 768 461 807 463 788 461 b 732 471 765 461 735 469 l 719 468 b 799 457 744 463 772 456 l 850 428 l 861 435 m 679 626 l 678 629 l 651 647 l 646 639 l 643 638 b 672 624 653 632 663 628 l 676 626 m 842 568 l 833 576 b 649 614 782 592 703 603 b 576 626 626 617 597 626 b 531 615 558 626 546 622 l 526 629 l 535 644 l 553 654 l 560 676 l 556 717 l 567 715 l 556 728 l 565 744 l 581 733 l 574 746 l 585 754 l 600 743 l 600 744 l 588 758 l 601 768 l 617 758 l 601 778 l 628 782 l 638 774 l 636 778 l 628 788 l 639 803 l 654 804 l 665 789 b 649 829 663 803 656 817 b 690 793 663 817 676 804 l 681 804 l 694 803 l 678 836 l 701 819 l 715 825 l 729 810 l 729 810 l 725 824 l 744 825 b 763 808 750 818 756 813 l 765 814 l 749 833 l 768 835 l 785 821 l 788 819 l 781 825 l 792 836 l 814 822 l 815 822 l 797 836 l 817 847 l 822 844 l 826 849 l 838 847 l 825 849 l 818 863 l 829 874 l 811 871 l 807 881 l 786 879 l 799 899 l 771 879 l 750 876 l 767 901 l 713 864 b 736 904 721 875 732 890 l 717 879 l 697 879 l 697 886 l 696 888 l 660 858 l 657 875 l 647 863 l 628 863 l 631 872 l 617 876 l 622 900 l 642 899 l 650 911 l 658 904 l 665 906 l 674 914 l 682 908 l 688 908 l 692 915 b 717 911 700 914 710 914 l 721 911 l 726 918 l 738 908 l 739 917 l 768 922 l 775 918 l 776 922 l 790 921 l 797 926 l 801 921 l 803 921 l 803 926 l 811 942 l 806 946 l 796 946 l 786 958 l 811 972 l 814 978 l 804 983 l 804 986 l 793 979 l 775 976 l 775 989 b 761 971 771 982 765 976 l 750 969 l 744 975 l 735 968 l 688 964 l 685 967 l 640 963 l 635 964 l 632 964 l 625 961 l 611 961 b 561 953 600 954 575 953 l 550 958 b 518 953 542 954 529 953 l 500 961 b 493 961 497 961 494 961 b 429 969 478 961 451 969 b 344 986 400 969 374 986 b 311 983 333 986 322 983 l 313 981 l 307 964 l 318 958 l 311 947 l 318 931 l 331 931 l 331 928 l 338 926 l 339 906 l 353 899 l 350 889 l 364 894 l 372 881 l 364 869 l 361 869 l 350 861 l 351 854 l 367 857 l 382 847 l 360 831 l 372 836 l 385 825 l 401 825 l 400 807 b 439 779 411 794 426 797 l 432 771 l 433 769 l 450 778 l 451 764 l 458 763 l 464 751 l 464 744 l 478 732 l 478 710 l 481 707 l 485 669 l 481 664 l 485 649 l 475 643 l 482 638 l 467 629 l 468 629 l 468 621 l 524 606 l 539 614 b 581 619 553 615 567 619 b 667 603 610 619 638 608 l 665 593 b 586 599 639 596 613 599 b 551 597 575 599 564 597 l 544 592 b 628 596 574 593 600 596 b 682 586 644 596 667 594 l 679 581 l 688 571 l 696 574 l 710 542 b 736 533 717 536 726 535 l 768 507 l 807 494 l 807 496 b 724 553 786 522 751 535 b 686 588 710 563 697 575 b 840 540 732 581 801 567 b 760 576 819 557 786 572 l 760 586 l 765 586 b 842 568 789 586 821 579 m 858 513 l 850 532 l 858 513 m 872 683 l 850 701 l 843 700 b 810 715 835 707 822 715 l 811 719 b 696 668 775 714 722 693 l 689 654 l 690 651 l 699 651 l 740 682 l 715 649 l 722 644 l 717 635 l 722 638 l 750 622 l 728 618 l 707 626 b 775 610 725 611 753 615 b 846 588 799 606 824 597 l 860 600 l 858 617 l 863 618 l 857 617 l 844 607 b 817 603 836 606 826 603 b 803 604 813 603 807 604 b 767 643 786 613 769 624 l 774 664 l 769 676 l 803 703 l 822 703 l 847 689 l 858 690 l 871 683 m 881 557 l 872 567 l 874 558 l 879 554 m 988 533 l 978 533 l 978 547 l 976 547 l 961 535 l 956 546 l 961 551 l 956 551 l 953 543 l 933 531 l 935 549 l 939 551 b 940 561 939 554 940 558 l 940 564 l 933 549 l 933 535 l 924 526 l 911 553 b 915 575 913 560 915 568 b 914 596 915 582 915 589 l 907 568 b 900 599 906 578 903 589 l 894 571 l 908 564 l 910 554 l 903 551 l 904 543 l 896 538 l 892 539 b 890 522 892 533 890 528 l 899 517 l 888 501 l 882 506 l 876 499 l 888 496 l 889 478 l 892 476 l 894 463 l 893 458 l 893 451 l 897 453 l 903 442 l 911 442 l 924 456 l 936 461 l 940 475 l 947 482 l 953 482 l 950 492 l 961 510 l 975 518 l 975 525 m 969 490 b 963 485 967 489 965 486 l 964 485 m 824 667 l 817 672 l 808 672 b 792 656 803 669 796 660 l 796 640 l 803 632 l 807 631 l 811 633 b 804 635 808 633 806 635 l 794 649 l 804 668 m 889 574 l 885 588 l 885 561 l 885 563 l 888 574 m 724 796 l 719 803 l 718 801 m 976 579 b 965 556 971 572 968 564 l 975 568 m 810 746 b 786 744 803 744 794 744 l 783 743 l 786 739 b 810 746 794 742 803 743 m 871 744 l 863 749 l 840 746 l 842 743 l 868 743 m 856 767 b 851 768 854 767 851 768 b 824 761 842 768 832 764 b 854 765 833 761 844 764 m 775 1029 l 775 1031 l 761 1036 l 758 1046 l 765 1051 b 760 1067 761 1056 760 1061 l 763 1069 l 747 1067 l 738 1071 l 733 1086 l 715 1079 l 701 1089 l 701 1096 l 682 1092 l 681 1099 l 671 1092 l 654 1100 l 654 1107 l 640 1104 l 628 1113 l 626 1118 l 617 1108 b 378 1028 531 1106 456 1063 l 379 1026 l 415 1032 b 533 1019 454 1022 493 1019 b 631 1001 565 1019 601 1008 l 583 992 b 551 1003 575 996 561 1003 b 531 997 546 1003 538 1000 b 513 1000 525 999 519 1000 b 497 997 508 1000 503 999 b 368 1019 456 1010 411 1015 l 365 1017 l 374 1013 l 408 1011 l 385 1003 b 497 974 421 988 460 985 l 515 975 b 413 999 481 979 446 988 l 415 1008 b 486 997 439 1001 463 997 b 506 999 493 997 500 997 l 524 992 l 538 992 b 619 983 564 992 593 986 b 542 974 594 979 567 972 l 544 972 b 626 978 572 974 600 974 b 707 996 654 982 679 994 l 711 1000 l 740 1001 l 758 1011 l 758 1024 m 1285 558 b 1235 292 1285 468 1267 375 l 1226 286 l 1225 264 l 1164 163 b 1086 97 1132 146 1114 119 b 975 19 1051 69 1013 46 l 969 21 b 667 -65 881 -24 765 -65 b 503 -36 632 -65 519 -33 l 468 -17 l 458 -18 b 310 71 414 18 357 29 b 244 139 286 90 265 115 b 193 194 228 156 207 175 b 150 285 175 222 164 254 l 140 293 b 74 514 111 353 74 447 b 81 582 74 536 78 560 b 156 833 92 678 104 749 b 283 1011 193 896 242 951 b 428 1083 329 1040 381 1058 l 432 1083 b 486 1111 450 1082 471 1103 b 542 1132 504 1121 524 1125 l 565 1133 l 593 1146 b 674 1147 619 1146 647 1147 b 942 1093 781 1147 844 1140 b 1185 888 989 1072 1161 931 b 1224 801 1200 861 1210 831 b 1283 606 1254 738 1283 679 b 1279 589 1283 600 1282 594 b 1285 558 1282 579 1285 568 "},"¯":{"ha":397,"x_min":0,"x_max":0,"o":"m 549 1000 l 203 999 l 203 1115 l 547 1114 "},"°":{"ha":547,"x_min":0,"x_max":0,"o":"m 353 792 l 353 875 l 306 924 l 235 924 l 186 875 l 186 792 l 235 743 l 306 743 m 469 743 l 351 626 l 188 626 l 71 743 l 71 924 l 188 1040 l 351 1040 l 469 924 "},"´":{"ha":397,"x_min":0,"x_max":0,"o":"m 554 1093 l 256 921 l 197 1021 l 496 1193 "},"·":{"ha":313,"x_min":0,"x_max":0,"o":"m -224 400 l -344 400 l -344 521 l -224 521 "},"¸":{"ha":379,"x_min":0,"x_max":0,"o":"m 275 0 l 176 -171 l 92 -124 l 192 49 "},"º":{"ha":589,"x_min":0,"x_max":0,"o":"m 394 503 l 394 765 l 194 765 l 194 503 m 421 121 l 178 121 l 178 242 l 421 242 m 517 463 l 435 382 l 154 382 l 74 463 l 74 807 l 154 888 l 435 888 l 517 807 "},"»":{"ha":236,"x_min":0,"x_max":0,"o":"m -108 406 l -254 151 l -360 213 l -247 406 l -360 600 l -254 661 m 169 406 l 24 151 l -82 213 l 31 406 l -82 600 l 24 661 "},"¿":{"ha":767,"x_min":0,"x_max":0,"o":"m 758 125 l 632 0 l 171 0 l 44 125 l 44 442 l 171 568 l 301 568 l 301 667 l 422 667 l 422 447 l 219 447 l 165 392 l 165 175 l 219 121 l 583 121 l 672 211 m 422 768 l 301 768 l 301 889 l 422 889 "},"À":{"ha":844,"x_min":0,"x_max":0,"o":"m 550 369 l 425 713 l 301 369 m 813 0 l 685 0 l 594 249 l 257 249 l 167 0 l 38 0 l 360 889 l 490 889 m 606 1021 l 549 921 l 250 1093 l 307 1193 "},"Á":{"ha":844,"x_min":0,"x_max":0,"o":"m 550 369 l 425 713 l 301 369 m 813 0 l 685 0 l 594 249 l 257 249 l 167 0 l 38 0 l 360 889 l 490 889 m 588 1093 l 289 921 l 231 1021 l 529 1193 "},"Â":{"ha":844,"x_min":0,"x_max":0,"o":"m 550 369 l 425 713 l 301 369 m 813 0 l 685 0 l 594 249 l 257 249 l 167 0 l 38 0 l 360 889 l 490 889 m 665 1053 l 607 953 l 424 1060 l 240 953 l 182 1053 l 424 1193 "},"Ã":{"ha":844,"x_min":0,"x_max":0,"o":"m 550 369 l 425 713 l 301 369 m 813 0 l 685 0 l 594 249 l 257 249 l 167 0 l 38 0 l 360 889 l 490 889 m 669 1117 l 554 1001 l 236 1001 l 351 1117 "},"Ä":{"ha":844,"x_min":0,"x_max":0,"o":"m 550 369 l 425 713 l 301 369 m 813 0 l 685 0 l 594 249 l 257 249 l 167 0 l 38 0 l 360 889 l 490 889 m 365 1000 l 244 1000 l 244 1121 l 365 1121 m 615 1000 l 494 1000 l 494 1121 l 615 1121 "},"Å":{"ha":844,"x_min":0,"x_max":0,"o":"m 550 369 l 425 713 l 301 369 m 486 1018 l 486 1081 l 450 1115 l 399 1115 l 363 1081 l 363 1018 l 399 982 l 450 982 m 813 0 l 685 0 l 594 249 l 257 249 l 167 0 l 38 0 l 358 886 l 267 978 l 267 1121 l 360 1213 l 489 1213 l 582 1121 l 582 978 l 490 888 "},"Æ":{"ha":1188,"x_min":0,"x_max":0,"o":"m 669 688 l 440 369 l 669 369 m 1140 0 l 668 0 l 669 249 l 353 249 l 172 0 l 22 0 l 22 0 l 668 889 l 1140 889 l 1140 768 l 797 768 l 797 517 l 1060 517 l 1060 394 l 797 394 l 797 121 l 1140 121 "},"Ç":{"ha":806,"x_min":0,"x_max":0,"o":"m 790 125 l 664 0 l 497 0 l 399 -171 l 314 -124 l 386 0 l 196 0 l 68 125 l 68 764 l 196 889 l 664 889 l 790 764 l 706 678 l 615 768 l 244 768 l 190 714 l 190 175 l 244 121 l 615 121 l 706 211 "},"È":{"ha":578,"x_min":0,"x_max":0,"o":"m 529 0 l 65 0 l 65 889 l 529 889 l 529 768 l 186 768 l 186 517 l 449 517 l 449 394 l 186 394 l 186 121 l 529 121 m 483 1021 l 426 921 l 128 1093 l 185 1193 "},"É":{"ha":578,"x_min":0,"x_max":0,"o":"m 529 0 l 65 0 l 65 889 l 529 889 l 529 768 l 186 768 l 186 517 l 449 517 l 449 394 l 186 394 l 186 121 l 529 121 m 476 1093 l 178 921 l 119 1021 l 418 1193 "},"Ê":{"ha":578,"x_min":0,"x_max":0,"o":"m 529 0 l 65 0 l 65 889 l 529 889 l 529 768 l 186 768 l 186 517 l 449 517 l 449 394 l 186 394 l 186 121 l 529 121 m 539 1053 l 482 953 l 297 1060 l 114 953 l 56 1053 l 297 1193 "},"Ë":{"ha":578,"x_min":0,"x_max":0,"o":"m 529 0 l 65 0 l 65 889 l 529 889 l 529 768 l 186 768 l 186 517 l 449 517 l 449 394 l 186 394 l 186 121 l 529 121 m 232 1000 l 111 1000 l 111 1121 l 232 1121 m 482 1000 l 361 1000 l 361 1121 l 482 1121 "},"Ì":{"ha":281,"x_min":0,"x_max":0,"o":"m 199 0 l 78 0 l 78 889 l 199 889 m 306 1021 l 249 921 l -50 1093 l 7 1193 "},"Í":{"ha":281,"x_min":0,"x_max":0,"o":"m 199 0 l 78 0 l 78 889 l 199 889 m 332 1093 l 33 921 l -25 1021 l 274 1193 "},"Î":{"ha":281,"x_min":0,"x_max":0,"o":"m 199 0 l 78 0 l 78 889 l 199 889 m 383 1053 l 326 953 l 142 1060 l -42 953 l -100 1053 l 142 1193 "},"Ï":{"ha":281,"x_min":0,"x_max":0,"o":"m 199 0 l 78 0 l 78 889 l 199 889 m 76 1000 l -44 1000 l -44 1121 l 76 1121 m 326 1000 l 206 1000 l 206 1121 l 326 1121 "},"Ð":{"ha":856,"x_min":0,"x_max":0,"o":"m 661 178 l 661 711 l 606 768 l 282 768 l 282 519 l 372 519 l 372 399 l 282 399 l 282 121 l 606 121 m 782 126 l 654 0 l 161 0 l 161 399 l 69 399 l 69 519 l 161 519 l 161 889 l 654 889 l 782 763 "},"Ñ":{"ha":774,"x_min":0,"x_max":0,"o":"m 692 0 l 571 0 l 199 644 l 199 0 l 78 0 l 78 889 l 199 889 l 571 243 l 571 889 l 692 889 m 636 1117 l 521 1001 l 203 1001 l 318 1117 "},"Ò":{"ha":913,"x_min":0,"x_max":0,"o":"m 715 175 l 715 714 l 661 768 l 249 768 l 194 714 l 194 175 l 249 121 l 661 121 m 838 125 l 710 0 l 200 0 l 74 125 l 74 764 l 200 889 l 710 889 l 838 764 m 639 1021 l 582 921 l 283 1093 l 340 1193 "},"Ó":{"ha":913,"x_min":0,"x_max":0,"o":"m 715 175 l 715 714 l 661 768 l 249 768 l 194 714 l 194 175 l 249 121 l 661 121 m 838 125 l 710 0 l 200 0 l 74 125 l 74 764 l 200 889 l 710 889 l 838 764 m 621 1093 l 322 921 l 264 1021 l 563 1193 "},"Ô":{"ha":913,"x_min":0,"x_max":0,"o":"m 715 175 l 715 714 l 661 768 l 249 768 l 194 714 l 194 175 l 249 121 l 661 121 m 838 125 l 710 0 l 200 0 l 74 125 l 74 764 l 200 889 l 710 889 l 838 764 m 694 1053 l 638 953 l 453 1060 l 269 953 l 211 1053 l 453 1193 "},"Õ":{"ha":913,"x_min":0,"x_max":0,"o":"m 715 175 l 715 714 l 661 768 l 249 768 l 194 714 l 194 175 l 249 121 l 661 121 m 838 125 l 710 0 l 200 0 l 74 125 l 74 764 l 200 889 l 710 889 l 838 764 m 703 1117 l 588 1001 l 269 1001 l 385 1117 "},"Ö":{"ha":913,"x_min":0,"x_max":0,"o":"m 715 175 l 715 714 l 661 768 l 249 768 l 194 714 l 194 175 l 249 121 l 661 121 m 838 125 l 710 0 l 200 0 l 74 125 l 74 764 l 200 889 l 710 889 l 838 764 m 376 1000 l 256 1000 l 256 1121 l 376 1121 m 626 1000 l 506 1000 l 506 1121 l 626 1121 "},"Ø":{"ha":951,"x_min":0,"x_max":0,"o":"m 756 175 l 756 660 l 304 121 l 701 121 m 689 768 l 289 768 l 235 714 l 235 226 m 943 882 l 858 782 l 878 764 l 878 125 l 750 0 l 240 0 l 219 21 l 143 -71 l 50 7 l 133 106 l 114 125 l 114 764 l 240 889 l 750 889 l 772 867 l 850 960 "},"Ù":{"ha":868,"x_min":0,"x_max":0,"o":"m 793 125 l 665 0 l 203 0 l 76 125 l 76 889 l 197 889 l 197 175 l 251 121 l 617 121 l 672 176 l 672 889 l 793 889 m 606 1021 l 549 921 l 250 1093 l 307 1193 "},"Ú":{"ha":868,"x_min":0,"x_max":0,"o":"m 793 125 l 665 0 l 203 0 l 76 125 l 76 889 l 197 889 l 197 175 l 251 121 l 617 121 l 672 176 l 672 889 l 793 889 m 610 1093 l 311 921 l 253 1021 l 551 1193 "},"Û":{"ha":868,"x_min":0,"x_max":0,"o":"m 793 125 l 665 0 l 203 0 l 76 125 l 76 889 l 197 889 l 197 175 l 251 121 l 617 121 l 672 176 l 672 889 l 793 889 m 672 1053 l 615 953 l 431 1060 l 247 953 l 189 1053 l 431 1193 "},"Ü":{"ha":868,"x_min":0,"x_max":0,"o":"m 793 125 l 665 0 l 203 0 l 76 125 l 76 889 l 197 889 l 197 175 l 251 121 l 617 121 l 672 176 l 672 889 l 793 889 m 365 1000 l 244 1000 l 244 1121 l 365 1121 m 615 1000 l 494 1000 l 494 1121 l 615 1121 "},"Ý":{"ha":732,"x_min":0,"x_max":0,"o":"m 683 889 l 425 440 l 425 0 l 304 0 l 304 440 l 46 889 l 183 889 l 364 576 l 544 889 m 543 1093 l 244 921 l 186 1021 l 485 1193 "},"Þ":{"ha":675,"x_min":0,"x_max":0,"o":"m 631 340 l 503 214 l 175 214 l 175 0 l 54 0 l 54 889 l 175 889 l 175 689 l 503 689 l 631 563 "},"ß":{"ha":1533,"x_min":0,"x_max":0,"o":"m 714 125 l 586 0 l 183 0 l 57 125 l 142 211 l 232 121 l 538 121 l 592 175 l 592 324 l 538 379 l 183 379 l 57 504 l 57 764 l 183 889 l 586 889 l 714 764 l 628 678 l 538 768 l 232 768 l 178 714 l 178 554 l 232 500 l 586 500 l 714 374 m 1479 125 l 1353 0 l 950 0 l 822 125 l 908 211 l 999 121 l 1304 121 l 1358 175 l 1358 324 l 1304 379 l 950 379 l 822 504 l 822 764 l 950 889 l 1353 889 l 1479 764 l 1394 678 l 1304 768 l 999 768 l 944 714 l 944 554 l 999 500 l 1353 500 l 1479 374 "},"à":{"ha":844,"x_min":0,"x_max":0,"o":"m 550 369 l 425 713 l 301 369 m 813 0 l 685 0 l 594 249 l 257 249 l 167 0 l 38 0 l 360 889 l 490 889 m 606 1021 l 549 921 l 250 1093 l 307 1193 "},"á":{"ha":844,"x_min":0,"x_max":0,"o":"m 550 369 l 425 713 l 301 369 m 813 0 l 685 0 l 594 249 l 257 249 l 167 0 l 38 0 l 360 889 l 490 889 m 588 1093 l 289 921 l 231 1021 l 529 1193 "},"â":{"ha":844,"x_min":0,"x_max":0,"o":"m 550 369 l 425 713 l 301 369 m 813 0 l 685 0 l 594 249 l 257 249 l 167 0 l 38 0 l 360 889 l 490 889 m 665 1053 l 607 953 l 424 1060 l 240 953 l 182 1053 l 424 1193 "},"ã":{"ha":844,"x_min":0,"x_max":0,"o":"m 550 369 l 425 713 l 301 369 m 813 0 l 685 0 l 594 249 l 257 249 l 167 0 l 38 0 l 360 889 l 490 889 m 669 1117 l 554 1001 l 236 1001 l 351 1117 "},"ä":{"ha":844,"x_min":0,"x_max":0,"o":"m 550 369 l 425 713 l 301 369 m 813 0 l 685 0 l 594 249 l 257 249 l 167 0 l 38 0 l 360 889 l 490 889 m 365 1000 l 244 1000 l 244 1121 l 365 1121 m 615 1000 l 494 1000 l 494 1121 l 615 1121 "},"å":{"ha":844,"x_min":0,"x_max":0,"o":"m 550 369 l 425 713 l 301 369 m 486 1018 l 486 1081 l 450 1115 l 399 1115 l 363 1081 l 363 1018 l 399 982 l 450 982 m 813 0 l 685 0 l 594 249 l 257 249 l 167 0 l 38 0 l 358 886 l 267 978 l 267 1121 l 360 1213 l 489 1213 l 582 1121 l 582 978 l 490 888 "},"æ":{"ha":1188,"x_min":0,"x_max":0,"o":"m 669 688 l 440 369 l 669 369 m 1140 0 l 668 0 l 669 249 l 353 249 l 172 0 l 22 0 l 22 0 l 668 889 l 1140 889 l 1140 768 l 797 768 l 797 517 l 1060 517 l 1060 394 l 797 394 l 797 121 l 1140 121 "},"ç":{"ha":806,"x_min":0,"x_max":0,"o":"m 790 125 l 664 0 l 196 0 l 68 125 l 68 764 l 196 889 l 664 889 l 790 764 l 706 678 l 615 768 l 244 768 l 190 714 l 190 175 l 244 121 l 615 121 l 706 211 "},"è":{"ha":578,"x_min":0,"x_max":0,"o":"m 529 0 l 65 0 l 65 889 l 529 889 l 529 768 l 186 768 l 186 517 l 449 517 l 449 394 l 186 394 l 186 121 l 529 121 m 483 1021 l 426 921 l 128 1093 l 185 1193 "},"é":{"ha":578,"x_min":0,"x_max":0,"o":"m 529 0 l 65 0 l 65 889 l 529 889 l 529 768 l 186 768 l 186 517 l 449 517 l 449 394 l 186 394 l 186 121 l 529 121 m 476 1093 l 178 921 l 119 1021 l 418 1193 "},"ê":{"ha":578,"x_min":0,"x_max":0,"o":"m 529 0 l 65 0 l 65 889 l 529 889 l 529 768 l 186 768 l 186 517 l 449 517 l 449 394 l 186 394 l 186 121 l 529 121 m 539 1053 l 482 953 l 297 1060 l 114 953 l 56 1053 l 297 1193 "},"ë":{"ha":578,"x_min":0,"x_max":0,"o":"m 529 0 l 65 0 l 65 889 l 529 889 l 529 768 l 186 768 l 186 517 l 449 517 l 449 394 l 186 394 l 186 121 l 529 121 m 232 1000 l 111 1000 l 111 1121 l 232 1121 m 482 1000 l 361 1000 l 361 1121 l 482 1121 "},"ì":{"ha":281,"x_min":0,"x_max":0,"o":"m 199 0 l 78 0 l 78 889 l 199 889 m 306 1021 l 249 921 l -50 1093 l 7 1193 "},"í":{"ha":281,"x_min":0,"x_max":0,"o":"m 199 0 l 78 0 l 78 889 l 199 889 m 332 1093 l 33 921 l -25 1021 l 274 1193 "},"î":{"ha":281,"x_min":0,"x_max":0,"o":"m 199 0 l 78 0 l 78 889 l 199 889 m 383 1053 l 326 953 l 142 1060 l -42 953 l -100 1053 l 142 1193 "},"ï":{"ha":281,"x_min":0,"x_max":0,"o":"m 199 0 l 78 0 l 78 889 l 199 889 m 76 1000 l -44 1000 l -44 1121 l 76 1121 m 326 1000 l 206 1000 l 206 1121 l 326 1121 "},"ð":{"ha":856,"x_min":0,"x_max":0,"o":"m 661 178 l 661 711 l 606 768 l 282 768 l 282 519 l 372 519 l 372 399 l 282 399 l 282 121 l 606 121 m 782 126 l 654 0 l 161 0 l 161 399 l 69 399 l 69 519 l 161 519 l 161 889 l 654 889 l 782 763 "},"ñ":{"ha":774,"x_min":0,"x_max":0,"o":"m 692 0 l 571 0 l 199 644 l 199 0 l 78 0 l 78 889 l 199 889 l 571 243 l 571 889 l 692 889 m 636 1117 l 521 1001 l 203 1001 l 318 1117 "},"ò":{"ha":913,"x_min":0,"x_max":0,"o":"m 715 175 l 715 714 l 661 768 l 249 768 l 194 714 l 194 175 l 249 121 l 661 121 m 838 125 l 710 0 l 200 0 l 74 125 l 74 764 l 200 889 l 710 889 l 838 764 m 639 1021 l 582 921 l 283 1093 l 340 1193 "},"ó":{"ha":913,"x_min":0,"x_max":0,"o":"m 715 175 l 715 714 l 661 768 l 249 768 l 194 714 l 194 175 l 249 121 l 661 121 m 838 125 l 710 0 l 200 0 l 74 125 l 74 764 l 200 889 l 710 889 l 838 764 m 621 1093 l 322 921 l 264 1021 l 563 1193 "},"ô":{"ha":913,"x_min":0,"x_max":0,"o":"m 715 175 l 715 714 l 661 768 l 249 768 l 194 714 l 194 175 l 249 121 l 661 121 m 838 125 l 710 0 l 200 0 l 74 125 l 74 764 l 200 889 l 710 889 l 838 764 m 694 1053 l 638 953 l 453 1060 l 269 953 l 211 1053 l 453 1193 "},"õ":{"ha":913,"x_min":0,"x_max":0,"o":"m 715 175 l 715 714 l 661 768 l 249 768 l 194 714 l 194 175 l 249 121 l 661 121 m 838 125 l 710 0 l 200 0 l 74 125 l 74 764 l 200 889 l 710 889 l 838 764 m 703 1117 l 588 1001 l 269 1001 l 385 1117 "},"ö":{"ha":913,"x_min":0,"x_max":0,"o":"m 715 175 l 715 714 l 661 768 l 249 768 l 194 714 l 194 175 l 249 121 l 661 121 m 838 125 l 710 0 l 200 0 l 74 125 l 74 764 l 200 889 l 710 889 l 838 764 m 376 1000 l 256 1000 l 256 1121 l 376 1121 m 626 1000 l 506 1000 l 506 1121 l 626 1121 "},"÷":{"ha":571,"x_min":0,"x_max":0,"o":"m 351 178 l 231 178 l 231 299 l 351 299 m 532 399 l 47 399 l 47 519 l 532 519 m 351 622 l 231 622 l 231 743 l 351 743 "},"ø":{"ha":951,"x_min":0,"x_max":0,"o":"m 756 175 l 756 660 l 304 121 l 701 121 m 689 768 l 289 768 l 235 714 l 235 226 m 943 882 l 858 782 l 878 764 l 878 125 l 750 0 l 240 0 l 219 21 l 143 -71 l 50 7 l 133 106 l 114 125 l 114 764 l 240 889 l 750 889 l 772 867 l 850 960 "},"ù":{"ha":868,"x_min":0,"x_max":0,"o":"m 793 125 l 665 0 l 203 0 l 76 125 l 76 889 l 197 889 l 197 175 l 251 121 l 617 121 l 672 176 l 672 889 l 793 889 m 606 1021 l 549 921 l 250 1093 l 307 1193 "},"ú":{"ha":868,"x_min":0,"x_max":0,"o":"m 793 125 l 665 0 l 203 0 l 76 125 l 76 889 l 197 889 l 197 175 l 251 121 l 617 121 l 672 176 l 672 889 l 793 889 m 610 1093 l 311 921 l 253 1021 l 551 1193 "},"û":{"ha":868,"x_min":0,"x_max":0,"o":"m 793 125 l 665 0 l 203 0 l 76 125 l 76 889 l 197 889 l 197 175 l 251 121 l 617 121 l 672 176 l 672 889 l 793 889 m 672 1053 l 615 953 l 431 1060 l 247 953 l 189 1053 l 431 1193 "},"ü":{"ha":868,"x_min":0,"x_max":0,"o":"m 793 125 l 665 0 l 203 0 l 76 125 l 76 889 l 197 889 l 197 175 l 251 121 l 617 121 l 672 176 l 672 889 l 793 889 m 365 1000 l 244 1000 l 244 1121 l 365 1121 m 615 1000 l 494 1000 l 494 1121 l 615 1121 "},"ý":{"ha":732,"x_min":0,"x_max":0,"o":"m 683 889 l 425 440 l 425 0 l 304 0 l 304 440 l 46 889 l 183 889 l 364 576 l 544 889 m 543 1093 l 244 921 l 186 1021 l 485 1193 "},"þ":{"ha":675,"x_min":0,"x_max":0,"o":"m 631 340 l 503 214 l 175 214 l 175 0 l 54 0 l 54 889 l 175 889 l 175 689 l 503 689 l 631 563 "},"ÿ":{"ha":732,"x_min":0,"x_max":0,"o":"m 683 889 l 425 440 l 425 0 l 304 0 l 304 440 l 46 889 l 183 889 l 364 576 l 544 889 m 299 1000 l 178 1000 l 178 1121 l 299 1121 m 549 1000 l 428 1000 l 428 1121 l 549 1121 "},"Ł":{"ha":615,"x_min":0,"x_max":0,"o":"m 588 0 l 143 0 l 143 376 l 51 344 l 51 465 l 143 499 l 143 889 l 264 889 l 264 542 l 354 575 l 354 454 l 264 421 l 264 121 l 588 121 "},"ł":{"ha":615,"x_min":0,"x_max":0,"o":"m 588 0 l 143 0 l 143 376 l 51 344 l 51 465 l 143 499 l 143 889 l 264 889 l 264 542 l 354 575 l 354 454 l 264 421 l 264 121 l 588 121 "},"Ž":{"ha":647,"x_min":0,"x_max":0,"o":"m 592 0 l 43 0 l 42 121 l 451 768 l 43 768 l 43 889 l 592 889 l 592 768 l 182 121 l 592 121 m 561 1092 l 319 953 l 78 1092 l 136 1193 l 319 1086 l 504 1193 "},"ž":{"ha":647,"x_min":0,"x_max":0,"o":"m 592 0 l 43 0 l 42 121 l 451 768 l 43 768 l 43 889 l 592 889 l 592 768 l 182 121 l 592 121 m 561 1092 l 319 953 l 78 1092 l 136 1193 l 319 1086 l 504 1193 "},"ﬁ":{"ha":786,"x_min":0,"x_max":0,"o":"m 467 768 l 183 768 l 183 525 l 365 525 l 365 403 l 183 403 l 183 0 l 63 0 l 63 889 l 467 889 m 704 0 l 583 0 l 583 889 l 704 889 "},"ﬂ":{"ha":1032,"x_min":0,"x_max":0,"o":"m 467 768 l 183 768 l 183 525 l 365 525 l 365 403 l 183 403 l 183 0 l 63 0 l 63 889 l 467 889 m 1008 0 l 564 0 l 564 889 l 685 889 l 685 121 l 1008 121 "},"ı":{"ha":311,"x_min":0,"x_max":0,"o":"m -224 0 l -344 0 l -344 889 l -224 889 "},"˘":{"ha":875,"x_min":0,"x_max":0,"o":"m 499 1164 l 499 1061 l 406 969 l 276 969 l 183 1061 l 183 1165 l 279 1164 l 279 1103 l 315 1067 l 367 1067 l 403 1103 l 403 1164 "},"˙":{"ha":285,"x_min":0,"x_max":0,"o":"m 211 988 l 65 988 l 65 1133 l 211 1133 "},"˚":{"ha":875,"x_min":0,"x_max":0,"o":"m 403 1025 l 403 1086 l 367 1122 l 315 1122 l 279 1086 l 279 1025 l 315 989 l 367 989 m 499 983 l 406 892 l 276 892 l 183 983 l 183 1128 l 276 1219 l 406 1219 l 499 1128 "},"˝":{"ha":397,"x_min":0,"x_max":0,"o":"m 485 1121 l 303 936 l 221 1018 l 403 1201 m 735 1121 l 553 936 l 471 1018 l 653 1201 "},"˛":{"ha":379,"x_min":0,"x_max":0,"o":"m 275 -124 l 192 -171 l 92 0 l 176 49 "},"ˇ":{"ha":393,"x_min":0,"x_max":0,"o":"m 539 1092 l 297 953 l 56 1092 l 114 1193 l 297 1086 l 482 1193 "},"Ā":{"ha":844,"x_min":0,"x_max":0,"o":"m 550 369 l 425 713 l 301 369 m 813 0 l 685 0 l 594 249 l 257 249 l 167 0 l 38 0 l 360 889 l 490 889 m 593 1000 l 247 999 l 247 1115 l 592 1114 "},"ā":{"ha":844,"x_min":0,"x_max":0,"o":"m 550 369 l 425 713 l 301 369 m 813 0 l 685 0 l 594 249 l 257 249 l 167 0 l 38 0 l 360 889 l 490 889 m 593 1000 l 247 999 l 247 1115 l 592 1114 "},"Ă":{"ha":844,"x_min":0,"x_max":0,"o":"m 550 369 l 425 713 l 301 369 m 813 0 l 685 0 l 594 249 l 257 249 l 167 0 l 38 0 l 360 889 l 490 889 m 576 1164 l 576 1061 l 483 969 l 354 969 l 261 1061 l 261 1165 l 357 1164 l 357 1103 l 393 1067 l 444 1067 l 481 1103 l 481 1164 "},"ă":{"ha":844,"x_min":0,"x_max":0,"o":"m 550 369 l 425 713 l 301 369 m 813 0 l 685 0 l 594 249 l 257 249 l 167 0 l 38 0 l 360 889 l 490 889 m 576 1164 l 576 1061 l 483 969 l 354 969 l 261 1061 l 261 1165 l 357 1164 l 357 1103 l 393 1067 l 444 1067 l 481 1103 l 481 1164 "},"Ą":{"ha":844,"x_min":0,"x_max":0,"o":"m 550 369 l 425 713 l 301 369 m 813 0 l 721 0 l 792 -124 l 708 -171 l 608 0 l 671 36 l 594 249 l 257 249 l 167 0 l 38 0 l 360 889 l 490 889 "},"ą":{"ha":844,"x_min":0,"x_max":0,"o":"m 550 369 l 425 713 l 301 369 m 813 0 l 721 0 l 792 -124 l 708 -171 l 608 0 l 671 36 l 594 249 l 257 249 l 167 0 l 38 0 l 360 889 l 490 889 "},"Ċ":{"ha":806,"x_min":0,"x_max":0,"o":"m 790 125 l 664 0 l 196 0 l 68 125 l 68 764 l 196 889 l 664 889 l 790 764 l 706 678 l 615 768 l 244 768 l 190 714 l 190 175 l 244 121 l 615 121 l 706 211 m 511 988 l 365 988 l 365 1133 l 511 1133 "},"ċ":{"ha":806,"x_min":0,"x_max":0,"o":"m 790 125 l 664 0 l 196 0 l 68 125 l 68 764 l 196 889 l 664 889 l 790 764 l 706 678 l 615 768 l 244 768 l 190 714 l 190 175 l 244 121 l 615 121 l 706 211 m 511 988 l 365 988 l 365 1133 l 511 1133 "},"Ć":{"ha":806,"x_min":0,"x_max":0,"o":"m 790 125 l 664 0 l 196 0 l 68 125 l 68 764 l 196 889 l 664 889 l 790 764 l 706 678 l 615 768 l 244 768 l 190 714 l 190 175 l 244 121 l 615 121 l 706 211 m 599 1093 l 300 921 l 242 1021 l 540 1193 "},"ć":{"ha":806,"x_min":0,"x_max":0,"o":"m 790 125 l 664 0 l 196 0 l 68 125 l 68 764 l 196 889 l 664 889 l 790 764 l 706 678 l 615 768 l 244 768 l 190 714 l 190 175 l 244 121 l 615 121 l 706 211 m 599 1093 l 300 921 l 242 1021 l 540 1193 "},"Č":{"ha":806,"x_min":0,"x_max":0,"o":"m 790 125 l 664 0 l 196 0 l 68 125 l 68 764 l 196 889 l 664 889 l 790 764 l 706 678 l 615 768 l 244 768 l 190 714 l 190 175 l 244 121 l 615 121 l 706 211 m 667 1092 l 425 953 l 183 1092 l 242 1193 l 425 1086 l 610 1193 "},"č":{"ha":806,"x_min":0,"x_max":0,"o":"m 790 125 l 664 0 l 196 0 l 68 125 l 68 764 l 196 889 l 664 889 l 790 764 l 706 678 l 615 768 l 244 768 l 190 714 l 190 175 l 244 121 l 615 121 l 706 211 m 667 1092 l 425 953 l 183 1092 l 242 1193 l 425 1086 l 610 1193 "},"Ď":{"ha":771,"x_min":0,"x_max":0,"o":"m 575 178 l 575 711 l 519 768 l 197 768 l 197 121 l 519 121 m 697 126 l 569 0 l 75 0 l 75 889 l 569 889 l 697 763 m 606 1092 l 364 953 l 122 1092 l 181 1193 l 364 1086 l 549 1193 "},"ď":{"ha":771,"x_min":0,"x_max":0,"o":"m 575 178 l 575 711 l 519 768 l 197 768 l 197 121 l 519 121 m 697 126 l 569 0 l 75 0 l 75 889 l 569 889 l 697 763 m 606 1092 l 364 953 l 122 1092 l 181 1193 l 364 1086 l 549 1193 "},"Đ":{"ha":856,"x_min":0,"x_max":0,"o":"m 661 178 l 661 711 l 606 768 l 282 768 l 282 519 l 372 519 l 372 399 l 282 399 l 282 121 l 606 121 m 782 126 l 654 0 l 161 0 l 161 399 l 69 399 l 69 519 l 161 519 l 161 889 l 654 889 l 782 763 "},"đ":{"ha":856,"x_min":0,"x_max":0,"o":"m 661 178 l 661 711 l 606 768 l 282 768 l 282 519 l 372 519 l 372 399 l 282 399 l 282 121 l 606 121 m 782 126 l 654 0 l 161 0 l 161 399 l 69 399 l 69 519 l 161 519 l 161 889 l 654 889 l 782 763 "},"Ē":{"ha":578,"x_min":0,"x_max":0,"o":"m 529 0 l 65 0 l 65 889 l 529 889 l 529 768 l 186 768 l 186 517 l 449 517 l 449 394 l 186 394 l 186 121 l 529 121 m 471 1000 l 125 999 l 125 1115 l 469 1114 "},"ē":{"ha":578,"x_min":0,"x_max":0,"o":"m 529 0 l 65 0 l 65 889 l 529 889 l 529 768 l 186 768 l 186 517 l 449 517 l 449 394 l 186 394 l 186 121 l 529 121 m 471 1000 l 125 999 l 125 1115 l 469 1114 "},"Ė":{"ha":578,"x_min":0,"x_max":0,"o":"m 529 0 l 65 0 l 65 889 l 529 889 l 529 768 l 186 768 l 186 517 l 449 517 l 449 394 l 186 394 l 186 121 l 529 121 m 378 988 l 232 988 l 232 1133 l 378 1133 "},"ė":{"ha":578,"x_min":0,"x_max":0,"o":"m 529 0 l 65 0 l 65 889 l 529 889 l 529 768 l 186 768 l 186 517 l 449 517 l 449 394 l 186 394 l 186 121 l 529 121 m 378 988 l 232 988 l 232 1133 l 378 1133 "},"Ę":{"ha":578,"x_min":0,"x_max":0,"o":"m 529 0 l 454 0 l 525 -124 l 442 -171 l 342 0 l 65 0 l 65 889 l 529 889 l 529 768 l 186 768 l 186 517 l 449 517 l 449 394 l 186 394 l 186 121 l 529 121 "},"ę":{"ha":578,"x_min":0,"x_max":0,"o":"m 529 0 l 454 0 l 525 -124 l 442 -171 l 342 0 l 65 0 l 65 889 l 529 889 l 529 768 l 186 768 l 186 517 l 449 517 l 449 394 l 186 394 l 186 121 l 529 121 "},"Ě":{"ha":578,"x_min":0,"x_max":0,"o":"m 529 0 l 65 0 l 65 889 l 529 889 l 529 768 l 186 768 l 186 517 l 449 517 l 449 394 l 186 394 l 186 121 l 529 121 m 544 1092 l 303 953 l 61 1092 l 119 1193 l 303 1086 l 488 1193 "},"ě":{"ha":578,"x_min":0,"x_max":0,"o":"m 529 0 l 65 0 l 65 889 l 529 889 l 529 768 l 186 768 l 186 517 l 449 517 l 449 394 l 186 394 l 186 121 l 529 121 m 544 1092 l 303 953 l 61 1092 l 119 1193 l 303 1086 l 488 1193 "},"Ġ":{"ha":842,"x_min":0,"x_max":0,"o":"m 796 125 l 669 0 l 200 0 l 74 125 l 74 764 l 200 889 l 669 889 l 796 764 l 710 678 l 621 768 l 249 768 l 194 714 l 194 175 l 249 121 l 621 121 l 676 176 l 676 333 l 538 333 l 538 454 l 796 454 m 506 988 l 360 988 l 360 1133 l 506 1133 "},"ġ":{"ha":842,"x_min":0,"x_max":0,"o":"m 796 125 l 669 0 l 200 0 l 74 125 l 74 764 l 200 889 l 669 889 l 796 764 l 710 678 l 621 768 l 249 768 l 194 714 l 194 175 l 249 121 l 621 121 l 676 176 l 676 333 l 538 333 l 538 454 l 796 454 m 506 988 l 360 988 l 360 1133 l 506 1133 "},"Ģ":{"ha":842,"x_min":0,"x_max":0,"o":"m 508 -56 l 410 -226 l 325 -179 l 425 -7 m 796 125 l 669 0 l 200 0 l 74 125 l 74 764 l 200 889 l 669 889 l 796 764 l 710 678 l 621 768 l 249 768 l 194 714 l 194 175 l 249 121 l 621 121 l 676 176 l 676 333 l 538 333 l 538 454 l 796 454 "},"ģ":{"ha":842,"x_min":0,"x_max":0,"o":"m 508 -56 l 410 -226 l 325 -179 l 425 -7 m 796 125 l 669 0 l 200 0 l 74 125 l 74 764 l 200 889 l 669 889 l 796 764 l 710 678 l 621 768 l 249 768 l 194 714 l 194 175 l 249 121 l 621 121 l 676 176 l 676 333 l 538 333 l 538 454 l 796 454 "},"Ħ":{"ha":1014,"x_min":0,"x_max":0,"o":"m 757 503 l 757 621 l 254 621 l 254 503 m 986 621 l 878 621 l 878 1 l 757 1 l 757 381 l 254 381 l 254 0 l 133 0 l 133 621 l 28 621 l 28 742 l 133 742 l 133 888 l 254 888 l 254 742 l 757 742 l 757 889 l 878 889 l 878 742 l 986 742 "},"ħ":{"ha":1014,"x_min":0,"x_max":0,"o":"m 757 503 l 757 621 l 254 621 l 254 503 m 986 621 l 878 621 l 878 1 l 757 1 l 757 381 l 254 381 l 254 0 l 133 0 l 133 621 l 28 621 l 28 742 l 133 742 l 133 888 l 254 888 l 254 742 l 757 742 l 757 889 l 878 889 l 878 742 l 986 742 "},"Ī":{"ha":281,"x_min":0,"x_max":0,"o":"m 199 0 l 78 0 l 78 889 l 199 889 m 315 1000 l -31 999 l -31 1115 l 314 1114 "},"ī":{"ha":281,"x_min":0,"x_max":0,"o":"m 199 0 l 78 0 l 78 889 l 199 889 m 315 1000 l -31 999 l -31 1115 l 314 1114 "},"Į":{"ha":281,"x_min":0,"x_max":0,"o":"m 219 -124 l 136 -171 l 36 0 l 78 24 l 78 889 l 199 889 l 199 0 l 149 0 "},"į":{"ha":281,"x_min":0,"x_max":0,"o":"m 219 -124 l 136 -171 l 36 0 l 78 24 l 78 889 l 199 889 l 199 0 l 149 0 "},"Ĳ":{"ha":996,"x_min":0,"x_max":0,"o":"m 199 0 l 78 0 l 78 889 l 199 889 m 921 126 l 793 0 l 454 0 l 328 126 l 414 213 l 504 121 l 743 121 l 799 176 l 799 889 l 921 889 "},"ĳ":{"ha":996,"x_min":0,"x_max":0,"o":"m 199 0 l 78 0 l 78 889 l 199 889 m 921 126 l 793 0 l 454 0 l 328 126 l 414 213 l 504 121 l 743 121 l 799 176 l 799 889 l 921 889 "},"Ķ":{"ha":664,"x_min":0,"x_max":0,"o":"m 403 -56 l 304 -226 l 219 -179 l 319 -7 m 674 0 l 533 0 l 240 508 l 178 446 l 178 1 l 57 1 l 57 889 l 178 889 l 178 618 l 450 889 l 621 889 l 329 597 "},"ķ":{"ha":664,"x_min":0,"x_max":0,"o":"m 403 -56 l 304 -226 l 219 -179 l 319 -7 m 674 0 l 533 0 l 240 508 l 178 446 l 178 1 l 57 1 l 57 889 l 178 889 l 178 618 l 450 889 l 621 889 l 329 597 "},"Ļ":{"ha":526,"x_min":0,"x_max":0,"o":"m 347 -56 l 249 -226 l 164 -179 l 264 -7 m 503 0 l 58 0 l 58 889 l 179 889 l 179 121 l 503 121 "},"ļ":{"ha":526,"x_min":0,"x_max":0,"o":"m 347 -56 l 249 -226 l 164 -179 l 264 -7 m 503 0 l 58 0 l 58 889 l 179 889 l 179 121 l 503 121 "},"Ĺ":{"ha":526,"x_min":0,"x_max":0,"o":"m 503 0 l 58 0 l 58 889 l 179 889 l 179 121 l 503 121 m 354 1093 l 56 921 l -3 1021 l 296 1193 "},"ĺ":{"ha":526,"x_min":0,"x_max":0,"o":"m 503 0 l 58 0 l 58 889 l 179 889 l 179 121 l 503 121 m 354 1093 l 56 921 l -3 1021 l 296 1193 "},"Ľ":{"ha":526,"x_min":0,"x_max":0,"o":"m 503 0 l 58 0 l 58 889 l 179 889 l 179 121 l 503 121 m 415 708 l 294 708 l 294 1072 l 415 1072 "},"ľ":{"ha":526,"x_min":0,"x_max":0,"o":"m 503 0 l 58 0 l 58 889 l 179 889 l 179 121 l 503 121 m 415 708 l 294 708 l 294 1072 l 415 1072 "},"Ń":{"ha":774,"x_min":0,"x_max":0,"o":"m 692 0 l 571 0 l 199 644 l 199 0 l 78 0 l 78 889 l 199 889 l 571 243 l 571 889 l 692 889 m 554 1093 l 256 921 l 197 1021 l 496 1193 "},"ń":{"ha":774,"x_min":0,"x_max":0,"o":"m 692 0 l 571 0 l 199 644 l 199 0 l 78 0 l 78 889 l 199 889 l 571 243 l 571 889 l 692 889 m 554 1093 l 256 921 l 197 1021 l 496 1193 "},"Ņ":{"ha":774,"x_min":0,"x_max":0,"o":"m 469 -56 l 371 -226 l 286 -179 l 386 -7 m 692 0 l 571 0 l 199 644 l 199 0 l 78 0 l 78 889 l 199 889 l 571 243 l 571 889 l 692 889 "},"ņ":{"ha":774,"x_min":0,"x_max":0,"o":"m 469 -56 l 371 -226 l 286 -179 l 386 -7 m 692 0 l 571 0 l 199 644 l 199 0 l 78 0 l 78 889 l 199 889 l 571 243 l 571 889 l 692 889 "},"Ň":{"ha":774,"x_min":0,"x_max":0,"o":"m 692 0 l 571 0 l 199 644 l 199 0 l 78 0 l 78 889 l 199 889 l 571 243 l 571 889 l 692 889 m 617 1092 l 375 953 l 133 1092 l 192 1193 l 375 1086 l 560 1193 "},"ň":{"ha":774,"x_min":0,"x_max":0,"o":"m 692 0 l 571 0 l 199 644 l 199 0 l 78 0 l 78 889 l 199 889 l 571 243 l 571 889 l 692 889 m 617 1092 l 375 953 l 133 1092 l 192 1193 l 375 1086 l 560 1193 "},"Ő":{"ha":913,"x_min":0,"x_max":0,"o":"m 715 175 l 715 714 l 661 768 l 249 768 l 194 714 l 194 175 l 249 121 l 661 121 m 838 125 l 710 0 l 200 0 l 74 125 l 74 764 l 200 889 l 710 889 l 838 764 m 474 1121 l 292 936 l 210 1018 l 392 1201 m 724 1121 l 542 936 l 460 1018 l 642 1201 "},"ő":{"ha":913,"x_min":0,"x_max":0,"o":"m 715 175 l 715 714 l 661 768 l 249 768 l 194 714 l 194 175 l 249 121 l 661 121 m 838 125 l 710 0 l 200 0 l 74 125 l 74 764 l 200 889 l 710 889 l 838 764 m 474 1121 l 292 936 l 210 1018 l 392 1201 m 724 1121 l 542 936 l 460 1018 l 642 1201 "},"Ŕ":{"ha":786,"x_min":0,"x_max":0,"o":"m 604 592 l 604 713 l 549 768 l 189 768 l 189 536 l 549 536 m 725 540 l 599 414 l 464 414 l 703 0 l 579 0 l 340 414 l 189 414 l 189 0 l 68 0 l 68 889 l 599 889 l 725 763 m 554 1093 l 256 921 l 197 1021 l 496 1193 "},"ŕ":{"ha":786,"x_min":0,"x_max":0,"o":"m 604 592 l 604 713 l 549 768 l 189 768 l 189 536 l 549 536 m 725 540 l 599 414 l 464 414 l 703 0 l 579 0 l 340 414 l 189 414 l 189 0 l 68 0 l 68 889 l 599 889 l 725 763 m 554 1093 l 256 921 l 197 1021 l 496 1193 "},"Ř":{"ha":786,"x_min":0,"x_max":0,"o":"m 604 592 l 604 713 l 549 768 l 189 768 l 189 536 l 549 536 m 725 540 l 599 414 l 464 414 l 703 0 l 579 0 l 340 414 l 189 414 l 189 0 l 68 0 l 68 889 l 599 889 l 725 763 m 622 1092 l 381 953 l 139 1092 l 197 1193 l 381 1086 l 565 1193 "},"ř":{"ha":786,"x_min":0,"x_max":0,"o":"m 604 592 l 604 713 l 549 768 l 189 768 l 189 536 l 549 536 m 725 540 l 599 414 l 464 414 l 703 0 l 579 0 l 340 414 l 189 414 l 189 0 l 68 0 l 68 889 l 599 889 l 725 763 m 622 1092 l 381 953 l 139 1092 l 197 1193 l 381 1086 l 565 1193 "},"Ś":{"ha":767,"x_min":0,"x_max":0,"o":"m 714 125 l 586 0 l 183 0 l 57 125 l 142 211 l 232 121 l 538 121 l 592 175 l 592 324 l 538 379 l 183 379 l 57 504 l 57 764 l 183 889 l 586 889 l 714 764 l 628 678 l 538 768 l 232 768 l 178 714 l 178 554 l 232 500 l 586 500 l 714 374 m 554 1093 l 256 921 l 197 1021 l 496 1193 "},"ś":{"ha":767,"x_min":0,"x_max":0,"o":"m 714 125 l 586 0 l 183 0 l 57 125 l 142 211 l 232 121 l 538 121 l 592 175 l 592 324 l 538 379 l 183 379 l 57 504 l 57 764 l 183 889 l 586 889 l 714 764 l 628 678 l 538 768 l 232 768 l 178 714 l 178 554 l 232 500 l 586 500 l 714 374 m 554 1093 l 256 921 l 197 1021 l 496 1193 "},"Ș":{"ha":767,"x_min":0,"x_max":0,"o":"m 469 -56 l 371 -226 l 286 -179 l 386 -7 m 714 125 l 586 0 l 183 0 l 57 125 l 142 211 l 232 121 l 538 121 l 592 175 l 592 324 l 538 379 l 183 379 l 57 504 l 57 764 l 183 889 l 586 889 l 714 764 l 628 678 l 538 768 l 232 768 l 178 714 l 178 554 l 232 500 l 586 500 l 714 374 "},"ș":{"ha":767,"x_min":0,"x_max":0,"o":"m 469 -56 l 371 -226 l 286 -179 l 386 -7 m 714 125 l 586 0 l 183 0 l 57 125 l 142 211 l 232 121 l 538 121 l 592 175 l 592 324 l 538 379 l 183 379 l 57 504 l 57 764 l 183 889 l 586 889 l 714 764 l 628 678 l 538 768 l 232 768 l 178 714 l 178 554 l 232 500 l 586 500 l 714 374 "},"Ť":{"ha":621,"x_min":0,"x_max":0,"o":"m 578 768 l 375 768 l 375 0 l 256 0 l 256 768 l 53 768 l 53 889 l 578 889 m 556 1092 l 314 953 l 72 1092 l 131 1193 l 314 1086 l 499 1193 "},"ť":{"ha":621,"x_min":0,"x_max":0,"o":"m 578 768 l 375 768 l 375 0 l 256 0 l 256 768 l 53 768 l 53 889 l 578 889 m 556 1092 l 314 953 l 72 1092 l 131 1193 l 314 1086 l 499 1193 "},"Ț":{"ha":621,"x_min":0,"x_max":0,"o":"m 392 -56 l 293 -226 l 208 -179 l 308 -7 m 578 768 l 375 768 l 375 0 l 256 0 l 256 768 l 53 768 l 53 889 l 578 889 "},"ț":{"ha":621,"x_min":0,"x_max":0,"o":"m 392 -56 l 293 -226 l 208 -179 l 308 -7 m 578 768 l 375 768 l 375 0 l 256 0 l 256 768 l 53 768 l 53 889 l 578 889 "},"Ū":{"ha":868,"x_min":0,"x_max":0,"o":"m 793 125 l 665 0 l 203 0 l 76 125 l 76 889 l 197 889 l 197 175 l 251 121 l 617 121 l 672 176 l 672 889 l 793 889 m 610 1000 l 264 999 l 264 1115 l 608 1114 "},"ū":{"ha":868,"x_min":0,"x_max":0,"o":"m 793 125 l 665 0 l 203 0 l 76 125 l 76 889 l 197 889 l 197 175 l 251 121 l 617 121 l 672 176 l 672 889 l 793 889 m 610 1000 l 264 999 l 264 1115 l 608 1114 "},"Ů":{"ha":868,"x_min":0,"x_max":0,"o":"m 486 1025 l 486 1086 l 450 1122 l 399 1122 l 363 1086 l 363 1025 l 399 989 l 450 989 m 793 125 l 665 0 l 203 0 l 76 125 l 76 889 l 197 889 l 197 175 l 251 121 l 617 121 l 672 176 l 672 889 l 793 889 m 582 983 l 489 892 l 360 892 l 267 983 l 267 1128 l 360 1219 l 489 1219 l 582 1128 "},"ů":{"ha":868,"x_min":0,"x_max":0,"o":"m 486 1025 l 486 1086 l 450 1122 l 399 1122 l 363 1086 l 363 1025 l 399 989 l 450 989 m 793 125 l 665 0 l 203 0 l 76 125 l 76 889 l 197 889 l 197 175 l 251 121 l 617 121 l 672 176 l 672 889 l 793 889 m 582 983 l 489 892 l 360 892 l 267 983 l 267 1128 l 360 1219 l 489 1219 l 582 1128 "},"Ű":{"ha":868,"x_min":0,"x_max":0,"o":"m 793 125 l 665 0 l 203 0 l 76 125 l 76 889 l 197 889 l 197 175 l 251 121 l 617 121 l 672 176 l 672 889 l 793 889 m 440 1121 l 258 936 l 176 1018 l 358 1201 m 690 1121 l 508 936 l 426 1018 l 608 1201 "},"ű":{"ha":868,"x_min":0,"x_max":0,"o":"m 793 125 l 665 0 l 203 0 l 76 125 l 76 889 l 197 889 l 197 175 l 251 121 l 617 121 l 672 176 l 672 889 l 793 889 m 440 1121 l 258 936 l 176 1018 l 358 1201 m 690 1121 l 508 936 l 426 1018 l 608 1201 "},"Ų":{"ha":868,"x_min":0,"x_max":0,"o":"m 793 125 l 665 0 l 665 0 l 736 -124 l 653 -171 l 553 0 l 203 0 l 76 125 l 76 889 l 197 889 l 197 175 l 251 121 l 617 121 l 672 176 l 672 889 l 793 889 "},"ų":{"ha":868,"x_min":0,"x_max":0,"o":"m 793 125 l 665 0 l 665 0 l 736 -124 l 653 -171 l 553 0 l 203 0 l 76 125 l 76 889 l 197 889 l 197 175 l 251 121 l 617 121 l 672 176 l 672 889 l 793 889 "},"Ź":{"ha":647,"x_min":0,"x_max":0,"o":"m 592 0 l 43 0 l 42 121 l 451 768 l 43 768 l 43 889 l 592 889 l 592 768 l 182 121 l 592 121 m 488 1093 l 189 921 l 131 1021 l 429 1193 "},"ź":{"ha":647,"x_min":0,"x_max":0,"o":"m 592 0 l 43 0 l 42 121 l 451 768 l 43 768 l 43 889 l 592 889 l 592 768 l 182 121 l 592 121 m 488 1093 l 189 921 l 131 1021 l 429 1193 "},"Ż":{"ha":647,"x_min":0,"x_max":0,"o":"m 592 0 l 43 0 l 42 121 l 451 768 l 43 768 l 43 889 l 592 889 l 592 768 l 182 121 l 592 121 m 383 988 l 238 988 l 238 1133 l 383 1133 "},"ż":{"ha":647,"x_min":0,"x_max":0,"o":"m 592 0 l 43 0 l 42 121 l 451 768 l 43 768 l 43 889 l 592 889 l 592 768 l 182 121 l 592 121 m 383 988 l 238 988 l 238 1133 l 383 1133 "},"Ǆ":{"ha":1419,"x_min":0,"x_max":0,"o":"m 575 178 l 575 711 l 519 768 l 197 768 l 197 121 l 519 121 m 697 126 l 569 0 l 75 0 l 75 889 l 569 889 l 697 763 m 1364 0 l 815 0 l 814 121 l 1224 768 l 815 768 l 815 889 l 1364 889 l 1364 768 l 954 121 l 1364 121 m 1333 1092 l 1092 953 l 850 1092 l 908 1193 l 1092 1086 l 1276 1193 "},"ǅ":{"ha":1419,"x_min":0,"x_max":0,"o":"m 575 178 l 575 711 l 519 768 l 197 768 l 197 121 l 519 121 m 697 126 l 569 0 l 75 0 l 75 889 l 569 889 l 697 763 m 1364 0 l 815 0 l 814 121 l 1224 768 l 815 768 l 815 889 l 1364 889 l 1364 768 l 954 121 l 1364 121 m 1333 1092 l 1092 953 l 850 1092 l 908 1193 l 1092 1086 l 1276 1193 "},"ǆ":{"ha":1419,"x_min":0,"x_max":0,"o":"m 575 178 l 575 711 l 519 768 l 197 768 l 197 121 l 519 121 m 697 126 l 569 0 l 75 0 l 75 889 l 569 889 l 697 763 m 1364 0 l 815 0 l 814 121 l 1224 768 l 815 768 l 815 889 l 1364 889 l 1364 768 l 954 121 l 1364 121 m 1333 1092 l 1092 953 l 850 1092 l 908 1193 l 1092 1086 l 1276 1193 "},"Ǉ":{"ha":1246,"x_min":0,"x_max":0,"o":"m 503 0 l 58 0 l 58 889 l 179 889 l 179 121 l 503 121 m 1171 126 l 1043 0 l 704 0 l 578 126 l 664 213 l 754 121 l 993 121 l 1049 176 l 1049 889 l 1171 889 "},"ǈ":{"ha":1246,"x_min":0,"x_max":0,"o":"m 503 0 l 58 0 l 58 889 l 179 889 l 179 121 l 503 121 m 1171 126 l 1043 0 l 704 0 l 578 126 l 664 213 l 754 121 l 993 121 l 1049 176 l 1049 889 l 1171 889 "},"ǉ":{"ha":1246,"x_min":0,"x_max":0,"o":"m 503 0 l 58 0 l 58 889 l 179 889 l 179 121 l 503 121 m 1171 126 l 1043 0 l 704 0 l 578 126 l 664 213 l 754 121 l 993 121 l 1049 176 l 1049 889 l 1171 889 "},"Ǌ":{"ha":1479,"x_min":0,"x_max":0,"o":"m 692 0 l 571 0 l 199 644 l 199 0 l 78 0 l 78 889 l 199 889 l 571 243 l 571 889 l 692 889 m 1404 126 l 1276 0 l 938 0 l 811 126 l 897 213 l 988 121 l 1226 121 l 1282 176 l 1282 889 l 1404 889 "},"ǋ":{"ha":1479,"x_min":0,"x_max":0,"o":"m 692 0 l 571 0 l 199 644 l 199 0 l 78 0 l 78 889 l 199 889 l 571 243 l 571 889 l 692 889 m 1404 126 l 1276 0 l 938 0 l 811 126 l 897 213 l 988 121 l 1226 121 l 1282 176 l 1282 889 l 1404 889 "},"ǌ":{"ha":1479,"x_min":0,"x_max":0,"o":"m 692 0 l 571 0 l 199 644 l 199 0 l 78 0 l 78 889 l 199 889 l 571 243 l 571 889 l 692 889 m 1404 126 l 1276 0 l 938 0 l 811 126 l 897 213 l 988 121 l 1226 121 l 1282 176 l 1282 889 l 1404 889 "},"Ğ":{"ha":842,"x_min":0,"x_max":0,"o":"m 796 125 l 669 0 l 200 0 l 74 125 l 74 764 l 200 889 l 669 889 l 796 764 l 710 678 l 621 768 l 249 768 l 194 714 l 194 175 l 249 121 l 621 121 l 676 176 l 676 333 l 538 333 l 538 454 l 796 454 m 593 1164 l 593 1061 l 500 969 l 371 969 l 278 1061 l 278 1165 l 374 1164 l 374 1103 l 410 1067 l 461 1067 l 497 1103 l 497 1164 "},"ğ":{"ha":842,"x_min":0,"x_max":0,"o":"m 796 125 l 669 0 l 200 0 l 74 125 l 74 764 l 200 889 l 669 889 l 796 764 l 710 678 l 621 768 l 249 768 l 194 714 l 194 175 l 249 121 l 621 121 l 676 176 l 676 333 l 538 333 l 538 454 l 796 454 m 593 1164 l 593 1061 l 500 969 l 371 969 l 278 1061 l 278 1165 l 374 1164 l 374 1103 l 410 1067 l 461 1067 l 497 1103 l 497 1164 "},"İ":{"ha":281,"x_min":0,"x_max":0,"o":"m 199 0 l 78 0 l 78 889 l 199 889 m 211 988 l 65 988 l 65 1133 l 211 1133 "},"Ş":{"ha":767,"x_min":0,"x_max":0,"o":"m 714 125 l 586 0 l 486 0 l 388 -171 l 303 -124 l 375 0 l 183 0 l 57 125 l 142 211 l 232 121 l 538 121 l 592 175 l 592 324 l 538 379 l 183 379 l 57 504 l 57 764 l 183 889 l 586 889 l 714 764 l 628 678 l 538 768 l 232 768 l 178 714 l 178 554 l 232 500 l 586 500 l 714 374 "},"ş":{"ha":767,"x_min":0,"x_max":0,"o":"m 714 125 l 586 0 l 486 0 l 388 -171 l 303 -124 l 375 0 l 183 0 l 57 125 l 142 211 l 232 121 l 538 121 l 592 175 l 592 324 l 538 379 l 183 379 l 57 504 l 57 764 l 183 889 l 586 889 l 714 764 l 628 678 l 538 768 l 232 768 l 178 714 l 178 554 l 232 500 l 586 500 l 714 374 "},"\u0000":{"ha":0,"x_min":0,"x_max":0,"o":""},"\r":{"ha":389,"x_min":0,"x_max":0,"o":""}}}
